<?xml version="1.0" encoding="UTF-8" standalone="no"?>
<!DOCTYPE svg PUBLIC "-//W3C//DTD SVG 1.1//EN" "http://www.w3.org/Graphics/SVG/1.1/DTD/svg11.dtd">
<svg xmlns="http://www.w3.org/2000/svg" version="1.1" viewBox="0.00 0.00 2941.00 712.00">
<g stroke-width="2.00" fill="none" stroke-linecap="butt">
<path stroke="#ddd588" stroke-opacity="0.600" vector-effect="non-scaling-stroke" d="
  M 1091.12 143.70
  Q 1072.08 142.04 1057.12 151.10
  C 1029.30 167.94 1022.54 205.25 1042.61 230.89
  Q 1049.52 239.73 1060.95 245.75"
/>
<path stroke="#f4ec9b" stroke-opacity="0.957" vector-effect="non-scaling-stroke" d="
  M 1173.60 551.75
  Q 1170.84 551.56 1168.15 554.23
  Q 1168.02 554.37 1167.86 554.29
  Q 1167.81 554.27 1167.79 554.23
  Q 1167.55 553.71 1168.02 553.33
  Q 1169.15 552.41 1169.16 551.06
  Q 1169.17 550.54 1168.80 550.17
  L 1164.23 545.62
  Q 1164.06 545.45 1164.11 545.22
  Q 1164.14 545.05 1164.14 544.88
  A 1.01 1.00 21.2 0 0 1163.82 544.17
  L 1162.31 542.74
  Q 1162.12 542.55 1162.12 542.29
  L 1162.12 541.79
  Q 1162.12 541.44 1161.86 541.20
  L 1160.27 539.69
  Q 1160.05 539.48 1160.11 539.19
  Q 1160.16 538.97 1160.13 538.74
  A 0.82 0.81 19.3 0 0 1159.88 538.23
  L 1157.31 535.77
  Q 1157.12 535.59 1157.12 535.31
  L 1157.12 534.78
  A 0.68 0.68 0.0 0 0 1156.91 534.29
  L 1153.43 530.82
  Q 1153.15 530.53 1153.08 530.13
  Q 1152.82 528.76 1151.45 527.92
  Q 1151.18 527.76 1151.11 527.46
  Q 1151.07 527.26 1151.10 527.06
  Q 1151.19 526.52 1150.79 526.15
  Q 1149.67 525.11 1148.64 523.98
  Q 1148.51 523.84 1148.33 523.88
  Q 1148.17 523.92 1148.02 523.87
  Q 1147.86 523.81 1147.80 523.66
  Q 1147.47 522.90 1146.68 522.92
  Q 1146.23 522.93 1145.90 522.62
  L 1142.90 519.78
  A 1.53 1.51 14.6 0 1 1142.49 519.09
  Q 1142.27 518.23 1141.60 517.66
  Q 1138.62 515.13 1136.54 511.82
  Q 1136.39 511.59 1136.38 511.31
  Q 1136.37 511.16 1136.36 511.01
  Q 1136.33 510.50 1135.97 510.12
  Q 1132.33 506.25 1130.47 501.23
  Q 1130.19 500.48 1130.49 499.73
  Q 1130.74 499.10 1130.07 499.12
  Q 1129.67 499.13 1129.60 498.74
  Q 1129.37 497.42 1128.34 496.79
  Q 1128.10 496.65 1128.11 496.37
  Q 1128.11 496.21 1128.13 496.06
  Q 1128.18 495.54 1127.81 495.17
  L 1125.31 492.71
  Q 1125.12 492.53 1125.12 492.26
  L 1125.12 491.82
  Q 1125.12 491.47 1124.87 491.23
  L 1122.30 488.71
  Q 1122.12 488.53 1122.12 488.26
  L 1122.12 487.81
  Q 1122.12 487.46 1121.87 487.22
  L 1119.15 484.58
  A 0.15 0.10 34.7 0 1 1119.12 484.50
  L 1119.12 484.08
  Q 1119.12 483.59 1118.77 483.23
  L 1116.40 480.74
  Q 1116.09 480.42 1116.08 479.99
  Q 1116.07 479.29 1115.49 478.90
  Q 1114.34 478.15 1114.15 477.01
  Q 1114.06 476.50 1113.70 476.13
  L 1109.49 471.85
  Q 1109.16 471.52 1109.08 471.06
  Q 1108.83 469.72 1107.44 468.88
  Q 1107.10 468.68 1107.44 468.47
  Q 1107.66 468.33 1107.61 468.13
  Q 1107.43 467.43 1108.14 467.59
  Q 1109.10 467.81 1109.31 466.84
  Q 1109.40 466.42 1109.83 466.39
  Q 1111.23 466.28 1111.42 464.62
  Q 1111.44 464.49 1111.55 464.44
  Q 1111.68 464.37 1111.82 464.35
  Q 1112.27 464.31 1112.63 464.04
  Q 1116.59 461.09 1118.30 457.40"
/>
</g>
<path fill="#005256" d="
  M 1714.85 0.00
  L 1740.53 0.00
  Q 1769.32 5.62 1785.86 29.65
  Q 1793.28 40.42 1795.59 53.79
  Q 1800.45 82.00 1784.50 104.03
  C 1773.47 119.26 1756.56 130.93 1737.74 133.29
  Q 1708.89 136.92 1686.28 120.64
  C 1676.46 113.57 1667.63 103.76 1662.50 92.95
  C 1652.54 71.94 1655.19 45.35 1670.07 26.78
  Q 1687.46 5.08 1714.85 0.00
  Z"
/>
<path fill="#005256" d="
  M 1513.73 267.13
  Q 1513.71 382.96 1513.78 431.07
  C 1513.78 435.39 1514.10 440.23 1514.89 444.44
  Q 1516.57 453.40 1522.30 461.79
  C 1529.65 472.56 1545.77 475.72 1558.81 476.36
  C 1574.73 477.14 1589.99 475.10 1605.71 472.06
  Q 1606.28 471.95 1606.28 472.53
  L 1606.28 556.53
  Q 1606.28 557.12 1605.70 557.26
  C 1572.65 565.00 1538.31 568.24 1504.86 565.13
  Q 1476.77 562.52 1455.01 552.78
  C 1417.73 536.11 1399.84 504.10 1396.00 464.74
  C 1395.29 457.38 1394.96 449.73 1394.96 442.52
  Q 1394.97 355.40 1394.85 267.67
  Q 1394.85 267.51 1394.92 267.37
  Q 1395.39 266.41 1394.25 266.41
  L 1309.55 266.41
  Q 1308.94 266.41 1308.94 265.80
  L 1308.91 176.06
  A 0.34 0.33 0.8 0 1 1309.26 175.73
  Q 1326.30 176.00 1343.52 175.64
  Q 1361.12 175.27 1375.32 169.91
  C 1397.88 161.39 1405.27 140.28 1405.27 117.84
  Q 1405.26 94.51 1405.30 71.92
  Q 1405.30 70.96 1406.26 70.96
  L 1512.97 70.96
  A 0.77 0.76 0.4 0 1 1513.73 71.72
  L 1513.73 175.26
  Q 1513.73 175.79 1514.26 175.79
  L 1619.27 175.79
  Q 1619.76 175.79 1619.76 176.27
  L 1619.76 265.95
  Q 1619.76 266.41 1619.30 266.41
  L 1514.45 266.41
  Q 1513.73 266.41 1513.73 267.13
  Z"
/>
<path fill="#322f12" fill-opacity="0.196" d="
  M 1091.12 143.70
  Q 1072.08 142.04 1057.12 151.10
  C 1029.30 167.94 1022.54 205.25 1042.61 230.89
  Q 1049.52 239.73 1060.95 245.75
  Q 1057.47 245.22 1054.32 245.13
  Q 1052.88 245.09 1051.50 244.68
  Q 1050.05 244.26 1048.62 244.34
  Q 1046.13 244.48 1043.51 243.95
  Q 1040.95 243.45 1038.44 243.33
  Q 1008.62 242.02 981.27 254.16
  L 980.12 253.48
  Q 979.65 253.20 979.84 252.69
  Q 980.27 251.53 979.31 251.00
  Q 978.79 250.72 978.91 250.14
  Q 979.09 249.36 978.40 249.06
  Q 977.88 248.82 977.88 248.25
  L 977.88 246.73
  Q 977.88 246.27 977.47 246.07
  Q 976.63 245.67 976.88 244.76
  Q 977.00 244.32 976.58 244.14
  Q 975.58 243.71 975.90 242.63
  Q 975.99 242.30 975.67 242.20
  Q 974.68 241.88 974.91 240.85
  Q 974.99 240.45 974.65 240.23
  Q 973.45 239.47 973.93 237.84
  A 0.56 0.55 18.4 0 0 973.58 237.15
  Q 972.75 236.85 972.88 235.91
  Q 972.97 235.32 972.47 235.01
  Q 970.24 233.60 970.94 231.09
  A 0.94 0.93 22.7 0 0 970.51 230.05
  Q 969.08 229.22 968.87 227.79
  Q 968.79 227.23 968.30 226.95
  Q 967.66 226.59 967.89 225.87
  Q 968.02 225.45 967.65 225.22
  Q 966.45 224.48 966.93 222.96
  A 0.72 0.71 -67.2 0 0 966.59 222.11
  Q 964.68 221.07 964.84 218.84
  A 0.93 0.92 14.6 0 0 964.30 217.93
  Q 963.67 217.64 963.88 216.98
  Q 964.07 216.39 963.51 216.11
  Q 962.63 215.67 962.89 214.69
  Q 963.00 214.29 962.61 214.16
  Q 961.72 213.88 961.90 212.97
  Q 962.01 212.43 961.56 212.14
  Q 960.52 211.48 960.90 210.19
  Q 961.13 209.39 960.38 209.01
  Q 959.65 208.65 959.89 207.85
  A 0.64 0.64 0.0 0 0 959.51 207.08
  Q 958.63 206.72 958.88 205.81
  Q 959.01 205.31 958.53 205.10
  Q 957.62 204.71 957.88 203.76
  Q 958.00 203.31 957.57 203.13
  Q 956.59 202.71 956.89 201.67
  Q 957.00 201.29 956.62 201.17
  Q 955.71 200.88 955.90 199.95
  Q 956.01 199.43 955.56 199.15
  Q 954.52 198.48 954.90 197.17
  Q 955.12 196.41 954.41 196.03
  Q 953.69 195.66 953.85 194.82
  Q 953.97 194.22 953.40 193.99
  Q 952.63 193.69 952.89 192.90
  A 0.62 0.62 0.0 0 0 952.62 192.18
  Q 951.48 191.50 951.91 190.14
  A 0.91 0.91 0.0 0 0 951.43 189.04
  Q 950.64 188.67 950.89 187.83
  A 0.63 0.62 -71.1 0 0 950.53 187.08
  Q 949.65 186.73 949.87 185.82
  Q 949.98 185.34 949.57 185.08
  Q 947.24 183.65 947.92 181.01
  Q 948.09 180.32 947.46 179.98
  Q 946.04 179.22 945.85 177.69
  Q 945.80 177.22 945.38 177.01
  Q 944.64 176.63 944.89 175.81
  Q 945.00 175.45 944.68 175.25
  Q 943.44 174.48 943.93 172.86
  A 0.59 0.58 -72.2 0 0 943.56 172.13
  Q 942.74 171.86 942.89 170.96
  A 0.95 0.95 0.0 0 0 942.31 169.94
  Q 941.66 169.67 941.88 168.99
  Q 942.07 168.39 941.50 168.10
  Q 940.60 167.66 940.90 166.69
  A 0.42 0.42 0.0 0 0 940.63 166.16
  Q 939.70 165.89 939.90 164.94
  A 0.74 0.73 23.2 0 0 939.59 164.17
  Q 938.50 163.47 938.91 162.05
  Q 939.07 161.47 938.57 161.15
  Q 937.47 160.45 937.93 158.97
  Q 938.12 158.38 937.57 158.10
  L 936.30 157.45
  Q 935.74 157.17 935.32 157.64
  Q 934.85 158.19 934.11 158.27
  Q 933.69 158.31 933.50 158.69
  Q 933.00 159.71 931.85 159.36
  Q 931.17 159.16 931.38 159.83
  Q 931.43 159.97 931.35 160.08
  Q 931.03 160.55 930.49 160.38
  Q 929.68 160.13 929.29 160.81
  Q 929.06 161.23 928.58 161.14
  Q 927.26 160.89 925.78 161.88
  Q 924.84 162.51 923.99 162.16
  Q 967.03 139.56 1015.76 136.01
  Q 1024.11 135.40 1044.69 135.83
  Q 1046.00 135.85 1047.33 136.32
  C 1049.63 137.13 1052.75 136.41 1055.30 136.91
  Q 1057.72 137.39 1060.16 137.41
  Q 1062.54 137.43 1065.25 138.17
  C 1067.85 138.89 1070.29 138.40 1072.86 139.23
  Q 1074.00 139.60 1075.20 139.68
  Q 1076.56 139.77 1077.84 140.26
  Q 1078.32 140.44 1078.83 140.50
  L 1081.84 140.85
  Q 1082.23 140.89 1082.36 141.26
  Q 1082.43 141.47 1082.40 141.69
  Q 1082.37 141.98 1082.65 142.04
  L 1091.12 143.70
  Z"
/>
<path fill="#fff69f" d="
  M 1091.12 143.70
  Q 1096.44 144.50 1101.84 146.22
  C 1167.12 167.07 1219.84 214.69 1246.04 277.80
  Q 1248.65 284.08 1251.17 291.02
  C 1258.34 310.79 1262.56 332.11 1263.72 352.41
  C 1264.84 371.92 1263.91 392.45 1259.69 413.15
  Q 1246.06 480.08 1199.10 529.09
  Q 1187.72 540.96 1173.60 551.75
  Q 1170.84 551.56 1168.15 554.23
  Q 1168.02 554.37 1167.86 554.29
  Q 1167.81 554.27 1167.79 554.23
  Q 1167.55 553.71 1168.02 553.33
  Q 1169.15 552.41 1169.16 551.06
  Q 1169.17 550.54 1168.80 550.17
  L 1164.23 545.62
  Q 1164.06 545.45 1164.11 545.22
  Q 1164.14 545.05 1164.14 544.88
  A 1.01 1.00 21.2 0 0 1163.82 544.17
  L 1162.31 542.74
  Q 1162.12 542.55 1162.12 542.29
  L 1162.12 541.79
  Q 1162.12 541.44 1161.86 541.20
  L 1160.27 539.69
  Q 1160.05 539.48 1160.11 539.19
  Q 1160.16 538.97 1160.13 538.74
  A 0.82 0.81 19.3 0 0 1159.88 538.23
  L 1157.31 535.77
  Q 1157.12 535.59 1157.12 535.31
  L 1157.12 534.78
  A 0.68 0.68 0.0 0 0 1156.91 534.29
  L 1153.43 530.82
  Q 1153.15 530.53 1153.08 530.13
  Q 1152.82 528.76 1151.45 527.92
  Q 1151.18 527.76 1151.11 527.46
  Q 1151.07 527.26 1151.10 527.06
  Q 1151.19 526.52 1150.79 526.15
  Q 1149.67 525.11 1148.64 523.98
  Q 1148.51 523.84 1148.33 523.88
  Q 1148.17 523.92 1148.02 523.87
  Q 1147.86 523.81 1147.80 523.66
  Q 1147.47 522.90 1146.68 522.92
  Q 1146.23 522.93 1145.90 522.62
  L 1142.90 519.78
  A 1.53 1.51 14.6 0 1 1142.49 519.09
  Q 1142.27 518.23 1141.60 517.66
  Q 1138.62 515.13 1136.54 511.82
  Q 1136.39 511.59 1136.38 511.31
  Q 1136.37 511.16 1136.36 511.01
  Q 1136.33 510.50 1135.97 510.12
  Q 1132.33 506.25 1130.47 501.23
  Q 1130.19 500.48 1130.49 499.73
  Q 1130.74 499.10 1130.07 499.12
  Q 1129.67 499.13 1129.60 498.74
  Q 1129.37 497.42 1128.34 496.79
  Q 1128.10 496.65 1128.11 496.37
  Q 1128.11 496.21 1128.13 496.06
  Q 1128.18 495.54 1127.81 495.17
  L 1125.31 492.71
  Q 1125.12 492.53 1125.12 492.26
  L 1125.12 491.82
  Q 1125.12 491.47 1124.87 491.23
  L 1122.30 488.71
  Q 1122.12 488.53 1122.12 488.26
  L 1122.12 487.81
  Q 1122.12 487.46 1121.87 487.22
  L 1119.15 484.58
  A 0.15 0.10 34.7 0 1 1119.12 484.50
  L 1119.12 484.08
  Q 1119.12 483.59 1118.77 483.23
  L 1116.40 480.74
  Q 1116.09 480.42 1116.08 479.99
  Q 1116.07 479.29 1115.49 478.90
  Q 1114.34 478.15 1114.15 477.01
  Q 1114.06 476.50 1113.70 476.13
  L 1109.49 471.85
  Q 1109.16 471.52 1109.08 471.06
  Q 1108.83 469.72 1107.44 468.88
  Q 1107.10 468.68 1107.44 468.47
  Q 1107.66 468.33 1107.61 468.13
  Q 1107.43 467.43 1108.14 467.59
  Q 1109.10 467.81 1109.31 466.84
  Q 1109.40 466.42 1109.83 466.39
  Q 1111.23 466.28 1111.42 464.62
  Q 1111.44 464.49 1111.55 464.44
  Q 1111.68 464.37 1111.82 464.35
  Q 1112.27 464.31 1112.63 464.04
  Q 1116.59 461.09 1118.30 457.40
  Q 1145.66 430.54 1153.70 393.60
  C 1158.95 369.46 1156.71 343.63 1147.46 321.40
  Q 1128.28 275.26 1083.57 254.45
  Q 1080.02 252.80 1072.26 250.10
  Q 1066.44 248.08 1060.95 245.75
  Q 1049.52 239.73 1042.61 230.89
  C 1022.54 205.25 1029.30 167.94 1057.12 151.10
  Q 1072.08 142.04 1091.12 143.70
  Z"
/>
<path fill="#49452b" fill-opacity="0.294" d="
  M 981.27 254.16
  Q 951.72 267.54 932.18 293.51
  Q 932.04 293.04 932.58 292.38
  Q 932.90 292.00 932.68 291.55
  Q 932.41 290.98 932.88 290.57
  A 0.91 0.91 0.0 0 0 932.47 288.98
  Q 930.91 288.68 930.00 287.28
  Q 929.77 286.92 929.35 286.92
  Q 928.38 286.91 927.67 287.61
  Q 927.27 288.01 926.77 287.73
  Q 926.30 287.47 925.82 287.70
  Q 925.46 287.88 925.17 287.59
  Q 922.81 285.16 920.58 282.95
  Q 920.49 282.86 920.36 282.88
  Q 920.23 282.90 920.11 282.82
  Q 920.06 282.80 920.08 282.75
  Q 920.41 281.51 919.51 280.74
  Q 918.47 279.85 917.32 278.74
  Q 917.12 278.54 917.12 278.26
  L 917.12 277.76
  Q 917.13 277.22 916.65 276.95
  Q 914.72 275.87 915.13 273.82
  Q 915.24 273.30 914.81 272.99
  Q 913.65 272.15 912.61 271.01
  Q 912.31 270.67 912.39 270.22
  Q 912.63 268.93 911.65 267.98
  Q 908.40 264.84 905.88 262.24
  Q 905.53 261.88 905.04 261.88
  L 903.97 261.88
  Q 903.50 261.88 903.16 261.55
  L 895.69 254.06
  Q 895.51 253.88 895.25 253.88
  L 894.85 253.88
  Q 894.50 253.88 894.26 253.64
  L 885.75 245.12
  Q 885.50 244.88 885.16 244.88
  L 884.74 244.88
  A 0.85 0.83 -10.8 0 1 883.96 244.36
  Q 883.70 243.73 883.05 243.85
  Q 882.56 243.94 882.21 243.59
  L 877.83 239.21
  Q 877.54 238.91 877.13 238.89
  Q 876.04 238.83 875.31 237.69
  Q 875.04 237.28 875.10 236.79
  Q 875.17 236.17 874.60 235.93
  Q 874.50 235.89 874.40 235.89
  Q 874.24 235.88 874.07 235.90
  Q 873.56 235.95 873.20 235.58
  L 868.70 231.06
  Q 868.52 230.88 868.26 230.88
  L 867.73 230.88
  A 0.63 0.61 -21.9 0 1 867.29 230.70
  L 864.86 228.22
  Q 864.53 227.88 864.06 227.88
  L 863.52 227.88
  Q 862.94 227.88 863.08 227.31
  Q 863.17 227.00 863.09 226.68
  Q 863.05 226.48 862.87 226.41
  Q 862.68 226.34 862.48 226.40
  A 0.55 0.54 56.8 0 1 861.96 226.29
  Q 860.34 224.84 858.89 223.19
  Q 858.72 223.01 858.49 222.93
  Q 858.30 222.86 858.10 222.87
  Q 857.56 222.91 857.17 222.53
  L 854.73 220.11
  A 0.41 0.37 69.2 0 0 854.55 220.02
  Q 854.14 219.94 854.17 220.16
  Q 854.26 220.89 853.40 220.69
  Q 852.94 220.59 852.17 220.76
  Q 881.93 184.20 923.99 162.16
  Q 924.84 162.51 925.78 161.88
  Q 927.26 160.89 928.58 161.14
  Q 929.06 161.23 929.29 160.81
  Q 929.68 160.13 930.49 160.38
  Q 931.03 160.55 931.35 160.08
  Q 931.43 159.97 931.38 159.83
  Q 931.17 159.16 931.85 159.36
  Q 933.00 159.71 933.50 158.69
  Q 933.69 158.31 934.11 158.27
  Q 934.85 158.19 935.32 157.64
  Q 935.74 157.17 936.30 157.45
  L 937.57 158.10
  Q 938.12 158.38 937.93 158.97
  Q 937.47 160.45 938.57 161.15
  Q 939.07 161.47 938.91 162.05
  Q 938.50 163.47 939.59 164.17
  A 0.74 0.73 23.2 0 1 939.90 164.94
  Q 939.70 165.89 940.63 166.16
  A 0.42 0.42 0.0 0 1 940.90 166.69
  Q 940.60 167.66 941.50 168.10
  Q 942.07 168.39 941.88 168.99
  Q 941.66 169.67 942.31 169.94
  A 0.95 0.95 0.0 0 1 942.89 170.96
  Q 942.74 171.86 943.56 172.13
  A 0.59 0.58 -72.2 0 1 943.93 172.86
  Q 943.44 174.48 944.68 175.25
  Q 945.00 175.45 944.89 175.81
  Q 944.64 176.63 945.38 177.01
  Q 945.80 177.22 945.85 177.69
  Q 946.04 179.22 947.46 179.98
  Q 948.09 180.32 947.92 181.01
  Q 947.24 183.65 949.57 185.08
  Q 949.98 185.34 949.87 185.82
  Q 949.65 186.73 950.53 187.08
  A 0.63 0.62 -71.1 0 1 950.89 187.83
  Q 950.64 188.67 951.43 189.04
  A 0.91 0.91 0.0 0 1 951.91 190.14
  Q 951.48 191.50 952.62 192.18
  A 0.62 0.62 0.0 0 1 952.89 192.90
  Q 952.63 193.69 953.40 193.99
  Q 953.97 194.22 953.85 194.82
  Q 953.69 195.66 954.41 196.03
  Q 955.12 196.41 954.90 197.17
  Q 954.52 198.48 955.56 199.15
  Q 956.01 199.43 955.90 199.95
  Q 955.71 200.88 956.62 201.17
  Q 957.00 201.29 956.89 201.67
  Q 956.59 202.71 957.57 203.13
  Q 958.00 203.31 957.88 203.76
  Q 957.62 204.71 958.53 205.10
  Q 959.01 205.31 958.88 205.81
  Q 958.63 206.72 959.51 207.08
  A 0.64 0.64 0.0 0 1 959.89 207.85
  Q 959.65 208.65 960.38 209.01
  Q 961.13 209.39 960.90 210.19
  Q 960.52 211.48 961.56 212.14
  Q 962.01 212.43 961.90 212.97
  Q 961.72 213.88 962.61 214.16
  Q 963.00 214.29 962.89 214.69
  Q 962.63 215.67 963.51 216.11
  Q 964.07 216.39 963.88 216.98
  Q 963.67 217.64 964.30 217.93
  A 0.93 0.92 14.6 0 1 964.84 218.84
  Q 964.68 221.07 966.59 222.11
  A 0.72 0.71 -67.2 0 1 966.93 222.96
  Q 966.45 224.48 967.65 225.22
  Q 968.02 225.45 967.89 225.87
  Q 967.66 226.59 968.30 226.95
  Q 968.79 227.23 968.87 227.79
  Q 969.08 229.22 970.51 230.05
  A 0.94 0.93 22.7 0 1 970.94 231.09
  Q 970.24 233.60 972.47 235.01
  Q 972.97 235.32 972.88 235.91
  Q 972.75 236.85 973.58 237.15
  A 0.56 0.55 18.4 0 1 973.93 237.84
  Q 973.45 239.47 974.65 240.23
  Q 974.99 240.45 974.91 240.85
  Q 974.68 241.88 975.67 242.20
  Q 975.99 242.30 975.90 242.63
  Q 975.58 243.71 976.58 244.14
  Q 977.00 244.32 976.88 244.76
  Q 976.63 245.67 977.47 246.07
  Q 977.88 246.27 977.88 246.73
  L 977.88 248.25
  Q 977.88 248.82 978.40 249.06
  Q 979.09 249.36 978.91 250.14
  Q 978.79 250.72 979.31 251.00
  Q 980.27 251.53 979.84 252.69
  Q 979.65 253.20 980.12 253.48
  L 981.27 254.16
  Z"
/>
<path fill="#005256" d="
  M 0.00 711.56
  L 0.00 175.77
  L 94.26 175.77
  Q 94.89 175.77 95.05 176.39
  L 105.01 214.99
  Q 105.19 215.68 105.90 215.68
  L 111.42 215.70
  Q 112.12 215.70 112.57 215.17
  C 133.22 190.52 161.58 175.73 193.18 170.72
  Q 224.25 165.80 256.62 170.41
  Q 318.02 179.17 360.97 223.88
  C 395.72 260.05 411.71 307.11 413.16 357.16
  Q 413.42 366.35 413.27 375.10
  Q 412.59 415.60 399.97 449.94
  Q 385.72 488.69 355.27 516.98
  Q 306.45 562.34 237.53 565.99
  Q 211.84 567.35 187.46 563.13
  Q 147.49 556.21 117.16 530.76
  A 0.19 0.19 0.0 0 0 116.85 530.92
  Q 116.97 533.00 116.97 535.01
  Q 116.98 623.12 116.98 710.99
  A 0.59 0.59 0.0 0 1 116.39 711.58
  L 0.00 711.56
  Z
  M 121.18 333.89
  Q 112.97 367.17 120.82 400.26
  Q 124.19 414.50 132.13 427.28
  C 146.44 450.32 168.20 463.56 194.79 466.11
  C 216.09 468.16 238.40 464.33 255.70 452.19
  C 288.26 429.34 297.90 390.42 293.77 351.75
  C 291.44 329.99 283.45 310.05 268.50 294.08
  Q 249.09 273.35 221.17 269.12
  C 198.42 265.67 174.46 269.30 155.90 282.20
  C 138.42 294.36 126.23 313.42 121.18 333.89
  Z"
/>
<path fill="#005256" d="
  M 597.39 230.12
  L 603.20 230.12
  Q 603.74 230.12 604.04 229.67
  C 618.37 208.37 637.03 188.12 660.56 178.37
  Q 669.91 174.50 680.47 172.28
  Q 697.60 168.68 715.13 168.42
  Q 734.35 168.13 755.37 168.30
  A 0.31 0.31 0.0 0 1 755.68 168.61
  L 755.68 282.92
  A 0.16 0.16 0.0 0 1 755.49 283.08
  Q 727.76 278.39 699.07 279.60
  C 680.19 280.39 660.41 284.34 643.98 293.36
  Q 618.14 307.54 606.51 335.63
  C 599.70 352.09 596.78 371.72 596.75 390.13
  Q 596.63 469.52 596.72 557.87
  A 0.70 0.70 0.0 0 1 596.02 558.57
  L 478.25 558.54
  Q 477.93 558.54 477.93 558.21
  L 477.93 176.18
  Q 477.93 175.79 478.32 175.79
  L 586.00 175.79
  Q 586.46 175.79 586.55 176.25
  L 596.62 229.49
  Q 596.74 230.12 597.39 230.12
  Z"
/>
<path fill="#005256" d="
  M 2941.00 302.62
  L 2941.00 558.53
  L 2822.77 558.48
  Q 2822.25 558.47 2822.25 557.96
  Q 2822.27 442.63 2822.24 330.33
  Q 2822.24 319.00 2818.60 307.28
  C 2811.75 285.21 2792.51 271.02 2769.76 268.41
  C 2748.56 265.97 2727.98 271.52 2713.91 287.96
  C 2702.60 301.16 2698.41 318.20 2698.40 335.50
  Q 2698.33 449.15 2698.34 558.18
  Q 2698.34 558.54 2697.97 558.54
  L 2580.13 558.57
  A 0.55 0.54 90.0 0 1 2579.59 558.02
  Q 2579.64 443.75 2579.59 331.08
  C 2579.57 299.89 2562.38 272.61 2530.65 267.96
  Q 2499.05 263.33 2476.58 284.10
  C 2462.50 297.12 2456.58 315.72 2456.56 334.61
  Q 2456.45 447.83 2456.52 558.22
  Q 2456.52 558.54 2456.20 558.54
  L 2338.55 558.56
  Q 2337.78 558.56 2337.78 557.80
  L 2337.78 176.01
  A 0.22 0.21 90.0 0 1 2337.99 175.79
  L 2445.99 175.79
  Q 2446.29 175.79 2446.36 176.08
  L 2456.44 219.56
  A 0.88 0.87 83.0 0 0 2457.30 220.24
  L 2462.79 220.21
  Q 2463.39 220.20 2463.77 219.74
  Q 2465.66 217.47 2467.53 215.26
  Q 2500.07 176.80 2549.49 169.77
  Q 2570.58 166.77 2592.89 169.52
  C 2628.45 173.90 2656.44 192.57 2673.35 224.62
  Q 2673.88 225.63 2675.03 225.61
  L 2680.01 225.56
  Q 2680.85 225.55 2681.36 224.89
  Q 2715.55 180.42 2771.48 170.88
  Q 2796.29 166.65 2823.86 169.13
  Q 2848.31 171.34 2868.77 180.13
  C 2906.77 196.47 2929.53 229.50 2937.16 269.26
  Q 2940.32 285.76 2941.00 302.62
  Z"
/>
<rect fill="#005256" x="1667.75" y="175.79" width="118.74" height="382.76" rx="0.58"/>
<path fill="#005256" d="
  M 2044.84 564.85
  Q 2011.77 568.79 1978.69 562.27
  C 1934.63 553.60 1899.61 527.21 1879.47 487.28
  C 1872.10 472.67 1867.25 455.75 1864.80 439.43
  Q 1862.06 421.21 1862.04 404.41
  Q 1861.89 290.41 1862.01 176.07
  A 0.28 0.28 0.0 0 1 1862.29 175.79
  L 1980.48 175.79
  A 0.27 0.27 0.0 0 1 1980.75 176.06
  Q 1980.73 271.83 1980.76 378.13
  Q 1980.76 388.68 1982.21 398.92
  C 1986.02 425.97 2000.23 447.57 2025.28 459.35
  C 2042.79 467.58 2065.01 468.46 2083.62 464.10
  Q 2103.62 459.42 2119.55 444.96
  C 2137.98 428.24 2145.04 403.40 2145.05 378.74
  Q 2145.12 277.37 2145.07 176.01
  A 0.22 0.22 0.0 0 1 2145.29 175.79
  L 2263.42 175.79
  A 0.38 0.38 0.0 0 1 2263.80 176.17
  L 2263.80 558.00
  Q 2263.80 558.55 2263.25 558.55
  L 2155.69 558.55
  A 0.55 0.54 83.3 0 1 2155.16 558.13
  L 2145.20 515.05
  A 1.20 1.20 0.0 0 0 2144.02 514.13
  L 2139.05 514.22
  Q 2138.26 514.23 2137.75 514.84
  Q 2101.36 558.12 2044.84 564.85
  Z"
/>
<path fill="#6e6b54" fill-opacity="0.431" d="
  M 932.18 293.51
  Q 922.03 307.18 915.76 323.57
  Q 915.17 321.80 916.68 319.37
  Q 916.94 318.97 916.95 318.49
  Q 916.98 317.58 917.73 317.04
  Q 918.42 316.56 917.67 316.16
  Q 916.92 315.77 915.95 315.76
  A 1.16 1.16 0.0 0 1 915.07 315.33
  Q 914.58 314.74 913.84 314.87
  Q 913.15 315.00 913.02 314.31
  Q 913.00 314.22 912.93 314.15
  Q 912.55 313.77 912.02 313.85
  Q 909.42 314.24 907.93 312.25
  Q 907.54 311.72 906.89 311.84
  Q 904.61 312.24 902.76 311.15
  Q 902.30 310.88 901.77 310.88
  L 900.75 310.88
  Q 900.22 310.88 900.00 310.39
  Q 899.66 309.64 898.84 309.89
  A 0.61 0.60 -19.7 0 1 898.10 309.55
  Q 897.72 308.65 896.73 308.86
  Q 896.15 308.98 896.06 308.39
  Q 896.04 308.21 895.88 308.11
  Q 895.52 307.87 895.06 307.87
  Q 892.03 307.88 889.05 307.90
  Q 888.55 307.90 888.19 307.55
  L 885.80 305.18
  Q 885.42 304.80 884.88 304.88
  Q 884.23 304.97 884.01 304.33
  A 0.86 0.86 0.0 0 0 882.88 303.80
  Q 881.55 304.33 880.92 303.24
  Q 880.55 302.60 880.08 303.16
  Q 879.99 303.27 879.94 303.40
  Q 879.52 304.38 879.05 303.43
  Q 878.66 302.64 877.80 302.89
  A 0.57 0.56 -19.1 0 1 877.11 302.56
  Q 876.73 301.61 875.74 301.88
  Q 875.32 302.00 875.11 301.61
  Q 874.09 299.68 871.85 299.84
  Q 871.30 299.88 871.03 299.40
  Q 870.62 298.68 869.77 298.86
  Q 869.17 298.99 869.04 298.38
  Q 869.00 298.22 868.87 298.09
  Q 868.43 297.64 868.08 298.17
  L 867.87 298.51
  Q 867.46 299.13 867.10 298.48
  Q 866.65 297.67 865.72 297.85
  Q 865.23 297.95 865.05 297.48
  Q 864.72 296.63 863.81 296.88
  Q 863.31 297.02 863.11 296.54
  Q 862.70 295.59 861.71 295.90
  A 0.45 0.45 0.0 0 1 861.15 295.60
  Q 860.90 294.77 860.05 294.89
  Q 859.56 294.95 859.21 294.60
  L 857.87 293.22
  Q 857.54 292.88 857.07 292.88
  L 853.75 292.88
  Q 853.28 292.88 853.09 292.45
  Q 852.82 291.84 852.17 291.88
  Q 851.60 291.93 851.18 291.52
  L 849.80 290.17
  Q 849.42 289.80 848.89 289.90
  Q 848.28 290.03 848.06 289.44
  Q 847.85 288.88 847.25 288.88
  L 845.74 288.88
  Q 845.36 288.88 845.16 288.56
  Q 844.46 287.51 843.14 287.91
  Q 842.37 288.14 842.06 287.40
  Q 841.79 286.75 841.09 286.92
  A 0.92 0.92 0.0 0 1 840.06 286.45
  Q 839.65 285.66 838.75 285.86
  Q 838.15 285.99 838.06 285.38
  Q 838.04 285.20 837.88 285.09
  Q 837.49 284.83 837.01 284.85
  Q 835.77 284.92 834.65 284.87
  Q 834.21 284.85 834.03 284.44
  Q 833.69 283.64 832.84 283.89
  A 0.63 0.63 0.0 0 1 832.08 283.53
  Q 831.73 282.69 830.82 282.84
  Q 830.21 282.95 829.91 282.40
  Q 828.90 280.55 827.05 280.89
  Q 826.38 281.02 826.05 280.42
  Q 825.62 279.62 824.72 279.91
  A 0.45 0.44 -17.0 0 1 824.16 279.62
  Q 823.88 278.70 822.92 278.91
  A 0.68 0.67 -22.3 0 1 822.21 278.62
  Q 821.48 277.50 819.83 277.89
  Q 819.43 277.99 819.38 278.40
  Q 819.34 278.67 819.10 278.78
  Q 818.08 279.24 818.16 280.29
  Q 818.18 280.60 817.88 280.62
  Q 816.87 280.68 816.95 281.76
  Q 817.06 283.13 815.89 282.97
  Q 816.73 280.73 817.64 278.54
  Q 827.66 254.34 842.80 232.99
  Q 847.24 226.73 852.17 220.76
  Q 852.94 220.59 853.40 220.69
  Q 854.26 220.89 854.17 220.16
  Q 854.14 219.94 854.55 220.02
  A 0.41 0.37 69.2 0 1 854.73 220.11
  L 857.17 222.53
  Q 857.56 222.91 858.10 222.87
  Q 858.30 222.86 858.49 222.93
  Q 858.72 223.01 858.89 223.19
  Q 860.34 224.84 861.96 226.29
  A 0.55 0.54 56.8 0 0 862.48 226.40
  Q 862.68 226.34 862.87 226.41
  Q 863.05 226.48 863.09 226.68
  Q 863.17 227.00 863.08 227.31
  Q 862.94 227.88 863.52 227.88
  L 864.06 227.88
  Q 864.53 227.88 864.86 228.22
  L 867.29 230.70
  A 0.63 0.61 -21.9 0 0 867.73 230.88
  L 868.26 230.88
  Q 868.52 230.88 868.70 231.06
  L 873.20 235.58
  Q 873.56 235.95 874.07 235.90
  Q 874.24 235.88 874.40 235.89
  Q 874.50 235.89 874.60 235.93
  Q 875.17 236.17 875.10 236.79
  Q 875.04 237.28 875.31 237.69
  Q 876.04 238.83 877.13 238.89
  Q 877.54 238.91 877.83 239.21
  L 882.21 243.59
  Q 882.56 243.94 883.05 243.85
  Q 883.70 243.73 883.96 244.36
  A 0.85 0.83 -10.8 0 0 884.74 244.88
  L 885.16 244.88
  Q 885.50 244.88 885.75 245.12
  L 894.26 253.64
  Q 894.50 253.88 894.85 253.88
  L 895.25 253.88
  Q 895.51 253.88 895.69 254.06
  L 903.16 261.55
  Q 903.50 261.88 903.97 261.88
  L 905.04 261.88
  Q 905.53 261.88 905.88 262.24
  Q 908.40 264.84 911.65 267.98
  Q 912.63 268.93 912.39 270.22
  Q 912.31 270.67 912.61 271.01
  Q 913.65 272.15 914.81 272.99
  Q 915.24 273.30 915.13 273.82
  Q 914.72 275.87 916.65 276.95
  Q 917.13 277.22 917.12 277.76
  L 917.12 278.26
  Q 917.12 278.54 917.32 278.74
  Q 918.47 279.85 919.51 280.74
  Q 920.41 281.51 920.08 282.75
  Q 920.06 282.80 920.11 282.82
  Q 920.23 282.90 920.36 282.88
  Q 920.49 282.86 920.58 282.95
  Q 922.81 285.16 925.17 287.59
  Q 925.46 287.88 925.82 287.70
  Q 926.30 287.47 926.77 287.73
  Q 927.27 288.01 927.67 287.61
  Q 928.38 286.91 929.35 286.92
  Q 929.77 286.92 930.00 287.28
  Q 930.91 288.68 932.47 288.98
  A 0.91 0.91 0.0 0 1 932.88 290.57
  Q 932.41 290.98 932.68 291.55
  Q 932.90 292.00 932.58 292.38
  Q 932.04 293.04 932.18 293.51
  Z"
/>
<path fill="#7e7b5f" fill-opacity="0.494" d="
  M 915.76 323.57
  Q 909.53 340.07 907.95 358.42
  Q 907.03 356.43 907.37 354.33
  Q 907.82 351.62 907.75 350.60
  Q 907.61 348.74 907.58 346.67
  Q 907.58 346.10 907.01 346.10
  Q 906.00 346.10 904.95 346.15
  A 0.52 0.40 -34.1 0 1 904.78 346.14
  Q 904.04 346.03 903.91 345.52
  A 0.54 0.54 0.0 0 0 903.39 345.12
  L 900.87 345.12
  Q 900.56 345.12 900.27 344.97
  Q 900.00 344.83 899.90 344.55
  Q 899.74 344.07 899.24 344.08
  Q 896.49 344.15 893.85 344.12
  Q 893.47 344.12 893.15 343.91
  Q 893.02 343.83 892.98 343.68
  Q 892.80 343.01 892.11 343.12
  Q 891.18 343.26 890.84 342.43
  A 0.65 0.64 69.7 0 0 890.05 342.06
  Q 888.51 342.56 887.76 341.32
  Q 887.56 341.00 887.21 341.11
  Q 886.34 341.37 885.94 340.55
  Q 885.73 340.12 885.25 340.12
  L 880.86 340.12
  Q 880.54 340.12 880.26 339.96
  Q 880.01 339.82 879.91 339.56
  Q 879.74 339.12 879.26 339.12
  L 872.86 339.12
  Q 872.53 339.12 872.25 338.95
  Q 872.01 338.81 871.92 338.56
  A 0.67 0.67 0.0 0 0 871.29 338.12
  L 868.87 338.12
  Q 868.54 338.12 868.24 337.96
  Q 868.00 337.82 867.92 337.58
  Q 867.75 337.12 867.26 337.12
  L 862.75 337.12
  Q 862.47 337.12 862.16 336.91
  Q 861.97 336.79 861.92 336.57
  Q 861.74 335.93 861.11 336.12
  Q 860.33 336.35 860.01 335.62
  Q 859.79 335.12 859.25 335.12
  L 851.84 335.12
  Q 851.50 335.12 851.22 334.94
  Q 851.00 334.79 850.91 334.54
  A 0.65 0.65 0.0 0 0 850.30 334.12
  L 846.84 334.12
  Q 846.53 334.12 846.26 333.97
  Q 846.00 333.82 845.91 333.55
  A 0.66 0.65 79.6 0 0 845.30 333.12
  L 842.91 333.12
  Q 842.59 333.12 842.31 332.99
  Q 842.01 332.86 841.91 332.58
  Q 841.75 332.12 841.27 332.12
  L 838.50 332.12
  A 0.44 0.43 0.7 0 0 838.06 332.54
  Q 838.06 332.69 837.98 332.80
  Q 837.63 333.29 837.20 332.85
  L 835.79 331.40
  Q 835.39 330.99 834.84 331.12
  Q 833.52 331.44 832.87 330.46
  Q 832.65 330.12 832.24 330.12
  L 827.80 330.12
  Q 827.48 330.12 827.21 329.93
  Q 826.99 329.78 826.90 329.54
  A 0.64 0.63 -9.7 0 0 826.30 329.12
  L 822.91 329.12
  Q 822.59 329.12 822.30 328.99
  Q 822.02 328.85 821.91 328.58
  Q 821.75 328.12 821.26 328.12
  L 817.86 328.12
  A 1.10 1.09 70.7 0 1 817.00 327.70
  Q 816.85 327.50 816.76 327.26
  A 0.27 0.27 0.0 0 0 816.42 327.11
  Q 816.21 327.20 816.15 327.40
  Q 815.96 327.99 815.36 328.13
  Q 814.36 328.37 813.96 327.56
  Q 813.74 327.12 813.26 327.12
  L 810.86 327.12
  A 0.97 0.97 0.0 0 1 810.07 326.71
  Q 809.42 325.78 808.23 326.13
  Q 807.39 326.38 806.99 325.60
  Q 806.77 325.16 806.28 325.06
  Q 805.59 324.92 805.44 325.62
  Q 805.23 326.63 804.41 327.33
  Q 804.01 327.67 804.09 328.18
  Q 804.32 329.80 803.80 331.40
  Q 803.32 332.86 803.38 334.20
  Q 803.44 335.77 803.20 337.21
  Q 803.10 337.80 802.58 338.06
  Q 802.10 338.30 802.16 338.84
  Q 802.52 341.75 801.09 343.09
  Q 801.49 340.30 801.76 337.54
  Q 802.10 334.12 802.46 332.00
  Q 805.23 315.59 809.90 299.63
  Q 811.14 295.38 815.89 282.97
  Q 817.06 283.13 816.95 281.76
  Q 816.87 280.68 817.88 280.62
  Q 818.18 280.60 818.16 280.29
  Q 818.08 279.24 819.10 278.78
  Q 819.34 278.67 819.38 278.40
  Q 819.43 277.99 819.83 277.89
  Q 821.48 277.50 822.21 278.62
  A 0.68 0.67 -22.3 0 0 822.92 278.91
  Q 823.88 278.70 824.16 279.62
  A 0.45 0.44 -17.0 0 0 824.72 279.91
  Q 825.62 279.62 826.05 280.42
  Q 826.38 281.02 827.05 280.89
  Q 828.90 280.55 829.91 282.40
  Q 830.21 282.95 830.82 282.84
  Q 831.73 282.69 832.08 283.53
  A 0.63 0.63 0.0 0 0 832.84 283.89
  Q 833.69 283.64 834.03 284.44
  Q 834.21 284.85 834.65 284.87
  Q 835.77 284.92 837.01 284.85
  Q 837.49 284.83 837.88 285.09
  Q 838.04 285.20 838.06 285.38
  Q 838.15 285.99 838.75 285.86
  Q 839.65 285.66 840.06 286.45
  A 0.92 0.92 0.0 0 0 841.09 286.92
  Q 841.79 286.75 842.06 287.40
  Q 842.37 288.14 843.14 287.91
  Q 844.46 287.51 845.16 288.56
  Q 845.36 288.88 845.74 288.88
  L 847.25 288.88
  Q 847.85 288.88 848.06 289.44
  Q 848.28 290.03 848.89 289.90
  Q 849.42 289.80 849.80 290.17
  L 851.18 291.52
  Q 851.60 291.93 852.17 291.88
  Q 852.82 291.84 853.09 292.45
  Q 853.28 292.88 853.75 292.88
  L 857.07 292.88
  Q 857.54 292.88 857.87 293.22
  L 859.21 294.60
  Q 859.56 294.95 860.05 294.89
  Q 860.90 294.77 861.15 295.60
  A 0.45 0.45 0.0 0 0 861.71 295.90
  Q 862.70 295.59 863.11 296.54
  Q 863.31 297.02 863.81 296.88
  Q 864.72 296.63 865.05 297.48
  Q 865.23 297.95 865.72 297.85
  Q 866.65 297.67 867.10 298.48
  Q 867.46 299.13 867.87 298.51
  L 868.08 298.17
  Q 868.43 297.64 868.87 298.09
  Q 869.00 298.22 869.04 298.38
  Q 869.17 298.99 869.77 298.86
  Q 870.62 298.68 871.03 299.40
  Q 871.30 299.88 871.85 299.84
  Q 874.09 299.68 875.11 301.61
  Q 875.32 302.00 875.74 301.88
  Q 876.73 301.61 877.11 302.56
  A 0.57 0.56 -19.1 0 0 877.80 302.89
  Q 878.66 302.64 879.05 303.43
  Q 879.52 304.38 879.94 303.40
  Q 879.99 303.27 880.08 303.16
  Q 880.55 302.60 880.92 303.24
  Q 881.55 304.33 882.88 303.80
  A 0.86 0.86 0.0 0 1 884.01 304.33
  Q 884.23 304.97 884.88 304.88
  Q 885.42 304.80 885.80 305.18
  L 888.19 307.55
  Q 888.55 307.90 889.05 307.90
  Q 892.03 307.88 895.06 307.87
  Q 895.52 307.87 895.88 308.11
  Q 896.04 308.21 896.06 308.39
  Q 896.15 308.98 896.73 308.86
  Q 897.72 308.65 898.10 309.55
  A 0.61 0.60 -19.7 0 0 898.84 309.89
  Q 899.66 309.64 900.00 310.39
  Q 900.22 310.88 900.75 310.88
  L 901.77 310.88
  Q 902.30 310.88 902.76 311.15
  Q 904.61 312.24 906.89 311.84
  Q 907.54 311.72 907.93 312.25
  Q 909.42 314.24 912.02 313.85
  Q 912.55 313.77 912.93 314.15
  Q 913.00 314.22 913.02 314.31
  Q 913.15 315.00 913.84 314.87
  Q 914.58 314.74 915.07 315.33
  A 1.16 1.16 0.0 0 0 915.95 315.76
  Q 916.92 315.77 917.67 316.16
  Q 918.42 316.56 917.73 317.04
  Q 916.98 317.58 916.95 318.49
  Q 916.94 318.97 916.68 319.37
  Q 915.17 321.80 915.76 323.57
  Z"
/>
<path fill="#9d9972" fill-opacity="0.616" d="
  M 907.95 358.42
  Q 906.55 377.15 910.91 396.04
  Q 909.42 396.12 909.59 394.01
  Q 909.63 393.52 909.27 393.17
  Q 908.26 392.16 908.41 390.68
  A 2.15 2.14 16.5 0 0 907.25 388.55
  Q 905.93 387.88 904.85 388.81
  Q 904.49 389.12 904.01 389.12
  L 898.75 389.12
  Q 898.19 389.12 898.07 389.67
  Q 898.03 389.85 897.86 389.93
  Q 897.45 390.13 897.00 390.13
  Q 895.00 390.12 892.93 390.12
  Q 892.43 390.12 892.12 390.51
  Q 891.39 391.46 890.04 391.09
  Q 889.46 390.93 889.14 391.45
  Q 889.05 391.60 888.94 391.75
  Q 888.64 392.12 888.17 392.12
  L 880.75 392.12
  Q 880.21 392.12 880.05 392.64
  Q 880.01 392.79 879.88 392.88
  Q 879.53 393.12 879.11 393.13
  Q 877.03 393.13 874.72 393.11
  Q 874.17 393.10 874.07 393.64
  Q 874.04 393.84 873.86 393.93
  Q 873.48 394.13 873.00 394.13
  Q 870.99 394.12 868.91 394.12
  Q 868.42 394.12 868.12 394.51
  Q 867.31 395.59 865.85 394.98
  A 0.53 0.53 0.0 0 0 865.11 395.41
  Q 865.07 395.72 864.84 395.90
  A 1.22 1.15 25.3 0 1 864.13 396.13
  Q 859.49 396.13 854.94 396.10
  Q 854.44 396.10 854.14 396.49
  Q 853.39 397.48 851.95 397.09
  A 0.70 0.70 0.0 0 0 851.26 397.28
  Q 851.12 397.42 851.04 397.60
  Q 850.81 398.12 850.25 398.12
  L 844.50 398.12
  Q 844.02 398.12 844.03 398.60
  Q 844.03 398.78 843.89 398.88
  Q 843.52 399.12 843.12 399.12
  Q 841.99 399.14 840.74 399.10
  Q 840.18 399.08 840.05 399.63
  Q 840.02 399.78 839.88 399.87
  Q 839.51 400.12 839.07 400.12
  Q 835.51 400.14 831.84 400.10
  Q 831.34 400.09 831.08 400.52
  Q 830.41 401.59 829.19 400.94
  Q 829.03 400.86 828.97 400.68
  L 828.86 400.37
  Q 828.69 399.91 828.35 400.26
  L 826.85 401.80
  A 1.06 1.05 21.8 0 1 826.09 402.12
  L 821.75 402.12
  Q 821.20 402.12 821.05 402.64
  Q 821.01 402.78 820.89 402.87
  Q 820.50 403.15 820.02 403.14
  Q 818.18 403.09 816.41 403.14
  Q 816.12 403.14 816.12 403.43
  L 816.12 403.72
  Q 816.12 404.12 815.72 404.12
  L 807.76 404.12
  Q 807.35 404.12 807.13 404.46
  Q 806.47 405.47 805.16 405.10
  Q 804.45 404.90 804.53 405.63
  Q 804.82 408.11 805.31 410.76
  Q 805.48 411.67 804.66 412.08
  A 0.16 0.16 0.0 0 0 804.61 412.32
  Q 805.56 413.65 805.33 415.43
  Q 805.26 416.00 805.63 416.45
  Q 806.72 417.78 806.37 419.69
  Q 806.27 420.22 806.49 420.71
  Q 807.47 422.88 806.97 425.19
  Q 803.12 409.24 802.12 401.50
  Q 798.34 372.30 801.09 343.09
  Q 802.52 341.75 802.16 338.84
  Q 802.10 338.30 802.58 338.06
  Q 803.10 337.80 803.20 337.21
  Q 803.44 335.77 803.38 334.20
  Q 803.32 332.86 803.80 331.40
  Q 804.32 329.80 804.09 328.18
  Q 804.01 327.67 804.41 327.33
  Q 805.23 326.63 805.44 325.62
  Q 805.59 324.92 806.28 325.06
  Q 806.77 325.16 806.99 325.60
  Q 807.39 326.38 808.23 326.13
  Q 809.42 325.78 810.07 326.71
  A 0.97 0.97 0.0 0 0 810.86 327.12
  L 813.26 327.12
  Q 813.74 327.12 813.96 327.56
  Q 814.36 328.37 815.36 328.13
  Q 815.96 327.99 816.15 327.40
  Q 816.21 327.20 816.42 327.11
  A 0.27 0.27 0.0 0 1 816.76 327.26
  Q 816.85 327.50 817.00 327.70
  A 1.10 1.09 70.7 0 0 817.86 328.12
  L 821.26 328.12
  Q 821.75 328.12 821.91 328.58
  Q 822.02 328.85 822.30 328.99
  Q 822.59 329.12 822.91 329.12
  L 826.30 329.12
  A 0.64 0.63 -9.7 0 1 826.90 329.54
  Q 826.99 329.78 827.21 329.93
  Q 827.48 330.12 827.80 330.12
  L 832.24 330.12
  Q 832.65 330.12 832.87 330.46
  Q 833.52 331.44 834.84 331.12
  Q 835.39 330.99 835.79 331.40
  L 837.20 332.85
  Q 837.63 333.29 837.98 332.80
  Q 838.06 332.69 838.06 332.54
  A 0.44 0.43 0.7 0 1 838.50 332.12
  L 841.27 332.12
  Q 841.75 332.12 841.91 332.58
  Q 842.01 332.86 842.31 332.99
  Q 842.59 333.12 842.91 333.12
  L 845.30 333.12
  A 0.66 0.65 79.6 0 1 845.91 333.55
  Q 846.00 333.82 846.26 333.97
  Q 846.53 334.12 846.84 334.12
  L 850.30 334.12
  A 0.65 0.65 0.0 0 1 850.91 334.54
  Q 851.00 334.79 851.22 334.94
  Q 851.50 335.12 851.84 335.12
  L 859.25 335.12
  Q 859.79 335.12 860.01 335.62
  Q 860.33 336.35 861.11 336.12
  Q 861.74 335.93 861.92 336.57
  Q 861.97 336.79 862.16 336.91
  Q 862.47 337.12 862.75 337.12
  L 867.26 337.12
  Q 867.75 337.12 867.92 337.58
  Q 868.00 337.82 868.24 337.96
  Q 868.54 338.12 868.87 338.12
  L 871.29 338.12
  A 0.67 0.67 0.0 0 1 871.92 338.56
  Q 872.01 338.81 872.25 338.95
  Q 872.53 339.12 872.86 339.12
  L 879.26 339.12
  Q 879.74 339.12 879.91 339.56
  Q 880.01 339.82 880.26 339.96
  Q 880.54 340.12 880.86 340.12
  L 885.25 340.12
  Q 885.73 340.12 885.94 340.55
  Q 886.34 341.37 887.21 341.11
  Q 887.56 341.00 887.76 341.32
  Q 888.51 342.56 890.05 342.06
  A 0.65 0.64 69.7 0 1 890.84 342.43
  Q 891.18 343.26 892.11 343.12
  Q 892.80 343.01 892.98 343.68
  Q 893.02 343.83 893.15 343.91
  Q 893.47 344.12 893.85 344.12
  Q 896.49 344.15 899.24 344.08
  Q 899.74 344.07 899.90 344.55
  Q 900.00 344.83 900.27 344.97
  Q 900.56 345.12 900.87 345.12
  L 903.39 345.12
  A 0.54 0.54 0.0 0 1 903.91 345.52
  Q 904.04 346.03 904.78 346.14
  A 0.52 0.40 -34.1 0 0 904.95 346.15
  Q 906.00 346.10 907.01 346.10
  Q 907.58 346.10 907.58 346.67
  Q 907.61 348.74 907.75 350.60
  Q 907.82 351.62 907.37 354.33
  Q 907.03 356.43 907.95 358.42
  Z"
/>
<path fill="#aaa579" fill-opacity="0.667" d="
  M 910.91 396.04
  Q 915.38 414.73 925.28 431.52
  Q 923.25 430.67 922.64 428.71
  Q 922.21 427.34 921.77 426.95
  Q 920.97 426.25 919.81 426.14
  Q 919.29 426.08 919.06 426.55
  Q 918.65 427.37 917.75 427.11
  A 0.52 0.52 0.0 0 0 917.10 427.74
  Q 917.25 428.29 916.94 428.78
  A 0.81 0.81 0.0 0 1 916.00 429.12
  Q 915.34 428.91 915.09 429.55
  Q 914.86 430.12 914.25 430.12
  L 913.75 430.12
  Q 913.21 430.12 912.99 430.61
  Q 912.67 431.35 911.88 431.11
  A 0.59 0.59 0.0 0 0 911.20 431.36
  Q 910.50 432.51 909.06 432.10
  Q 908.47 431.93 908.13 432.45
  Q 907.50 433.44 906.19 433.13
  Q 905.62 433.00 905.21 433.41
  L 901.79 436.83
  Q 901.47 437.16 901.11 436.87
  Q 900.97 436.76 900.92 436.60
  Q 900.68 435.68 900.14 436.46
  Q 899.46 437.45 898.16 437.13
  A 0.98 0.98 0.0 0 0 897.25 437.37
  L 895.89 438.72
  Q 895.58 439.03 895.14 439.08
  Q 894.00 439.22 893.30 440.33
  Q 893.05 440.73 893.09 441.20
  Q 893.17 442.11 892.24 442.11
  Q 891.00 442.12 889.75 442.12
  Q 889.23 442.12 889.01 442.59
  Q 888.65 443.37 887.78 443.11
  Q 887.30 442.96 887.14 443.44
  Q 886.86 444.28 885.98 444.09
  Q 885.45 443.98 885.15 444.44
  Q 884.49 445.44 883.17 445.13
  Q 882.60 445.00 882.20 445.41
  L 879.71 447.94
  Q 879.49 448.17 879.18 448.13
  Q 879.02 448.11 878.86 448.10
  Q 878.53 448.07 878.29 448.32
  L 876.86 449.78
  Q 876.54 450.12 876.07 450.12
  L 873.75 450.12
  Q 873.19 450.12 872.97 450.64
  Q 872.71 451.26 872.05 451.15
  Q 871.55 451.06 871.19 451.42
  L 868.82 453.82
  Q 868.45 454.19 867.93 454.09
  Q 867.21 453.97 866.99 454.71
  Q 866.87 455.12 866.44 455.12
  L 864.89 455.12
  Q 864.40 455.12 864.11 455.52
  Q 863.38 456.51 861.98 456.06
  A 0.67 0.66 19.9 0 0 861.16 456.44
  Q 860.81 457.28 859.87 457.10
  Q 859.33 457.00 859.09 457.49
  Q 858.70 458.30 857.72 458.14
  Q 857.03 458.02 857.12 458.71
  Q 857.34 460.32 855.73 460.13
  Q 855.22 460.07 855.03 460.55
  Q 854.70 461.38 853.82 461.11
  A 0.60 0.59 -69.9 0 0 853.10 461.45
  Q 852.73 462.35 851.75 462.14
  Q 851.18 462.01 851.04 462.59
  Q 851.01 462.73 850.92 462.85
  Q 850.58 463.25 850.16 462.94
  Q 850.00 462.81 849.96 462.63
  Q 849.77 461.76 849.16 462.41
  Q 847.53 464.11 845.88 465.77
  Q 845.53 466.12 845.04 466.12
  L 843.94 466.12
  Q 843.47 466.12 843.14 466.46
  L 841.72 467.95
  A 0.38 0.37 -39.9 0 1 841.13 467.90
  L 840.85 467.47
  Q 840.45 466.85 840.07 467.48
  Q 839.07 469.11 837.48 469.19
  Q 836.98 469.22 837.11 469.70
  Q 837.27 470.29 836.91 470.81
  Q 836.69 471.12 836.32 471.12
  L 835.74 471.12
  Q 835.22 471.12 835.01 471.60
  Q 834.67 472.35 833.84 472.12
  Q 833.37 472.00 833.12 472.42
  Q 832.54 473.44 831.29 473.13
  Q 830.77 473.00 830.33 473.31
  Q 828.72 474.42 828.23 476.32
  Q 828.19 476.52 827.99 476.47
  Q 827.83 476.44 827.77 476.36
  Q 827.50 475.98 827.35 476.45
  Q 827.29 476.62 827.13 476.75
  Q 814.04 452.26 806.97 425.19
  Q 807.47 422.88 806.49 420.71
  Q 806.27 420.22 806.37 419.69
  Q 806.72 417.78 805.63 416.45
  Q 805.26 416.00 805.33 415.43
  Q 805.56 413.65 804.61 412.32
  A 0.16 0.16 0.0 0 1 804.66 412.08
  Q 805.48 411.67 805.31 410.76
  Q 804.82 408.11 804.53 405.63
  Q 804.45 404.90 805.16 405.10
  Q 806.47 405.47 807.13 404.46
  Q 807.35 404.12 807.76 404.12
  L 815.72 404.12
  Q 816.12 404.12 816.12 403.72
  L 816.12 403.43
  Q 816.12 403.14 816.41 403.14
  Q 818.18 403.09 820.02 403.14
  Q 820.50 403.15 820.89 402.87
  Q 821.01 402.78 821.05 402.64
  Q 821.20 402.12 821.75 402.12
  L 826.09 402.12
  A 1.06 1.05 21.8 0 0 826.85 401.80
  L 828.35 400.26
  Q 828.69 399.91 828.86 400.37
  L 828.97 400.68
  Q 829.03 400.86 829.19 400.94
  Q 830.41 401.59 831.08 400.52
  Q 831.34 400.09 831.84 400.10
  Q 835.51 400.14 839.07 400.12
  Q 839.51 400.12 839.88 399.87
  Q 840.02 399.78 840.05 399.63
  Q 840.18 399.08 840.74 399.10
  Q 841.99 399.14 843.12 399.12
  Q 843.52 399.12 843.89 398.88
  Q 844.03 398.78 844.03 398.60
  Q 844.02 398.12 844.50 398.12
  L 850.25 398.12
  Q 850.81 398.12 851.04 397.60
  Q 851.12 397.42 851.26 397.28
  A 0.70 0.70 0.0 0 1 851.95 397.09
  Q 853.39 397.48 854.14 396.49
  Q 854.44 396.10 854.94 396.10
  Q 859.49 396.13 864.13 396.13
  A 1.22 1.15 25.3 0 0 864.84 395.90
  Q 865.07 395.72 865.11 395.41
  A 0.53 0.53 0.0 0 1 865.85 394.98
  Q 867.31 395.59 868.12 394.51
  Q 868.42 394.12 868.91 394.12
  Q 870.99 394.12 873.00 394.13
  Q 873.48 394.13 873.86 393.93
  Q 874.04 393.84 874.07 393.64
  Q 874.17 393.10 874.72 393.11
  Q 877.03 393.13 879.11 393.13
  Q 879.53 393.12 879.88 392.88
  Q 880.01 392.79 880.05 392.64
  Q 880.21 392.12 880.75 392.12
  L 888.17 392.12
  Q 888.64 392.12 888.94 391.75
  Q 889.05 391.60 889.14 391.45
  Q 889.46 390.93 890.04 391.09
  Q 891.39 391.46 892.12 390.51
  Q 892.43 390.12 892.93 390.12
  Q 895.00 390.12 897.00 390.13
  Q 897.45 390.13 897.86 389.93
  Q 898.03 389.85 898.07 389.67
  Q 898.19 389.12 898.75 389.12
  L 904.01 389.12
  Q 904.49 389.12 904.85 388.81
  Q 905.93 387.88 907.25 388.55
  A 2.15 2.14 16.5 0 1 908.41 390.68
  Q 908.26 392.16 909.27 393.17
  Q 909.63 393.52 909.59 394.01
  Q 909.42 396.12 910.91 396.04
  Z"
/>
<path fill="#c2bc85" fill-opacity="0.761" d="
  M 925.28 431.52
  Q 935.81 449.06 951.36 462.45
  Q 949.45 462.68 951.13 464.22
  Q 951.52 464.58 951.27 465.05
  Q 951.03 465.48 951.11 465.98
  Q 951.19 466.49 950.82 466.84
  L 949.31 468.27
  Q 949.12 468.45 949.12 468.71
  L 949.12 469.17
  Q 949.12 469.51 948.88 469.76
  L 944.30 474.30
  Q 944.12 474.49 944.12 474.75
  L 944.12 475.16
  Q 944.12 475.51 943.88 475.75
  L 941.80 477.83
  Q 941.45 478.17 940.97 478.12
  Q 940.73 478.09 940.50 478.14
  Q 939.95 478.25 940.11 478.78
  Q 940.37 479.66 939.57 480.05
  Q 938.89 480.39 939.13 481.10
  Q 939.21 481.32 939.07 481.55
  Q 938.80 481.97 938.30 482.04
  Q 936.43 482.31 936.06 484.13
  Q 935.95 484.63 935.59 485.00
  L 933.30 487.32
  Q 933.12 487.50 933.12 487.76
  L 933.12 488.30
  Q 933.12 488.57 932.93 488.75
  L 931.40 490.20
  Q 931.03 490.55 931.13 491.06
  Q 931.24 491.65 930.69 492.03
  A 0.77 0.76 33.5 0 1 930.07 492.15
  Q 929.78 492.08 929.50 492.12
  Q 929.12 492.17 929.12 492.55
  L 929.12 493.04
  Q 929.12 493.51 928.79 493.84
  L 923.30 499.31
  Q 923.12 499.49 923.12 499.75
  L 923.12 500.22
  A 0.73 0.69 -24.3 0 1 922.92 500.71
  L 917.41 506.21
  Q 917.08 506.55 917.15 507.01
  Q 917.27 507.71 916.61 507.99
  Q 916.19 508.18 916.16 508.64
  Q 916.07 510.09 914.50 511.04
  A 0.87 0.86 67.5 0 0 914.11 512.00
  Q 914.26 512.60 913.74 513.01
  Q 913.49 513.21 913.18 513.14
  Q 913.02 513.10 912.86 513.09
  Q 912.58 513.07 912.38 513.27
  L 910.28 515.32
  Q 910.05 515.55 910.12 515.87
  Q 910.15 516.00 910.14 516.14
  Q 910.11 516.50 909.86 516.76
  L 906.48 520.16
  Q 906.18 520.46 906.11 520.87
  Q 905.78 522.70 903.76 523.20
  A 2.20 2.07 -9.0 0 0 902.08 525.37
  Q 902.11 525.92 901.56 526.05
  A 0.63 0.63 0.0 0 0 901.10 526.83
  Q 901.24 527.30 900.98 527.72
  A 0.94 0.94 0.0 0 1 899.95 528.14
  Q 899.73 528.08 899.50 528.11
  Q 899.12 528.17 899.12 528.55
  L 899.12 529.04
  Q 899.12 529.51 898.79 529.85
  L 894.30 534.30
  Q 894.12 534.49 894.12 534.75
  L 894.12 535.22
  A 0.80 0.78 68.7 0 1 893.88 535.79
  L 892.31 537.27
  Q 892.12 537.45 892.12 537.71
  L 892.12 538.22
  A 0.68 0.68 0.0 0 1 891.91 538.71
  L 888.41 542.21
  Q 888.05 542.57 888.14 543.06
  Q 888.24 543.62 887.75 543.95
  Q 887.49 544.12 887.17 544.12
  L 886.75 544.12
  Q 886.26 544.12 886.03 544.56
  Q 885.46 545.72 883.86 545.05
  A 2.18 2.15 -89.1 0 1 882.66 543.80
  Q 882.00 542.01 881.19 544.25
  Q 854.76 521.74 836.01 492.28
  Q 831.22 484.75 827.13 476.75
  Q 827.29 476.62 827.35 476.45
  Q 827.50 475.98 827.77 476.36
  Q 827.83 476.44 827.99 476.47
  Q 828.19 476.52 828.23 476.32
  Q 828.72 474.42 830.33 473.31
  Q 830.77 473.00 831.29 473.13
  Q 832.54 473.44 833.12 472.42
  Q 833.37 472.00 833.84 472.12
  Q 834.67 472.35 835.01 471.60
  Q 835.22 471.12 835.74 471.12
  L 836.32 471.12
  Q 836.69 471.12 836.91 470.81
  Q 837.27 470.29 837.11 469.70
  Q 836.98 469.22 837.48 469.19
  Q 839.07 469.11 840.07 467.48
  Q 840.45 466.85 840.85 467.47
  L 841.13 467.90
  A 0.38 0.37 -39.9 0 0 841.72 467.95
  L 843.14 466.46
  Q 843.47 466.12 843.94 466.12
  L 845.04 466.12
  Q 845.53 466.12 845.88 465.77
  Q 847.53 464.11 849.16 462.41
  Q 849.77 461.76 849.96 462.63
  Q 850.00 462.81 850.16 462.94
  Q 850.58 463.25 850.92 462.85
  Q 851.01 462.73 851.04 462.59
  Q 851.18 462.01 851.75 462.14
  Q 852.73 462.35 853.10 461.45
  A 0.60 0.59 -69.9 0 1 853.82 461.11
  Q 854.70 461.38 855.03 460.55
  Q 855.22 460.07 855.73 460.13
  Q 857.34 460.32 857.12 458.71
  Q 857.03 458.02 857.72 458.14
  Q 858.70 458.30 859.09 457.49
  Q 859.33 457.00 859.87 457.10
  Q 860.81 457.28 861.16 456.44
  A 0.67 0.66 19.9 0 1 861.98 456.06
  Q 863.38 456.51 864.11 455.52
  Q 864.40 455.12 864.89 455.12
  L 866.44 455.12
  Q 866.87 455.12 866.99 454.71
  Q 867.21 453.97 867.93 454.09
  Q 868.45 454.19 868.82 453.82
  L 871.19 451.42
  Q 871.55 451.06 872.05 451.15
  Q 872.71 451.26 872.97 450.64
  Q 873.19 450.12 873.75 450.12
  L 876.07 450.12
  Q 876.54 450.12 876.86 449.78
  L 878.29 448.32
  Q 878.53 448.07 878.86 448.10
  Q 879.02 448.11 879.18 448.13
  Q 879.49 448.17 879.71 447.94
  L 882.20 445.41
  Q 882.60 445.00 883.17 445.13
  Q 884.49 445.44 885.15 444.44
  Q 885.45 443.98 885.98 444.09
  Q 886.86 444.28 887.14 443.44
  Q 887.30 442.96 887.78 443.11
  Q 888.65 443.37 889.01 442.59
  Q 889.23 442.12 889.75 442.12
  Q 891.00 442.12 892.24 442.11
  Q 893.17 442.11 893.09 441.20
  Q 893.05 440.73 893.30 440.33
  Q 894.00 439.22 895.14 439.08
  Q 895.58 439.03 895.89 438.72
  L 897.25 437.37
  A 0.98 0.98 0.0 0 1 898.16 437.13
  Q 899.46 437.45 900.14 436.46
  Q 900.68 435.68 900.92 436.60
  Q 900.97 436.76 901.11 436.87
  Q 901.47 437.16 901.79 436.83
  L 905.21 433.41
  Q 905.62 433.00 906.19 433.13
  Q 907.50 433.44 908.13 432.45
  Q 908.47 431.93 909.06 432.10
  Q 910.50 432.51 911.20 431.36
  A 0.59 0.59 0.0 0 1 911.88 431.11
  Q 912.67 431.35 912.99 430.61
  Q 913.21 430.12 913.75 430.12
  L 914.25 430.12
  Q 914.86 430.12 915.09 429.55
  Q 915.34 428.91 916.00 429.12
  A 0.81 0.81 0.0 0 0 916.94 428.78
  Q 917.25 428.29 917.10 427.74
  A 0.52 0.52 0.0 0 1 917.75 427.11
  Q 918.65 427.37 919.06 426.55
  Q 919.29 426.08 919.81 426.14
  Q 920.97 426.25 921.77 426.95
  Q 922.21 427.34 922.64 428.71
  Q 923.25 430.67 925.28 431.52
  Z"
/>
<path fill="#e8e096" fill-opacity="0.910" d="
  M 1118.30 457.40
  Q 1116.59 461.09 1112.63 464.04
  Q 1112.27 464.31 1111.82 464.35
  Q 1111.68 464.37 1111.55 464.44
  Q 1111.44 464.49 1111.42 464.62
  Q 1111.23 466.28 1109.83 466.39
  Q 1109.40 466.42 1109.31 466.84
  Q 1109.10 467.81 1108.14 467.59
  Q 1107.43 467.43 1107.61 468.13
  Q 1107.66 468.33 1107.44 468.47
  Q 1107.10 468.68 1107.44 468.88
  Q 1108.83 469.72 1109.08 471.06
  Q 1109.16 471.52 1109.49 471.85
  L 1113.70 476.13
  Q 1114.06 476.50 1114.15 477.01
  Q 1114.34 478.15 1115.49 478.90
  Q 1116.07 479.29 1116.08 479.99
  Q 1116.09 480.42 1116.40 480.74
  L 1118.77 483.23
  Q 1119.12 483.59 1119.12 484.08
  L 1119.12 484.50
  A 0.15 0.10 34.7 0 0 1119.15 484.58
  L 1121.87 487.22
  Q 1122.12 487.46 1122.12 487.81
  L 1122.12 488.26
  Q 1122.12 488.53 1122.30 488.71
  L 1124.87 491.23
  Q 1125.12 491.47 1125.12 491.82
  L 1125.12 492.26
  Q 1125.12 492.53 1125.31 492.71
  L 1127.81 495.17
  Q 1128.18 495.54 1128.13 496.06
  Q 1128.11 496.21 1128.11 496.37
  Q 1128.10 496.65 1128.34 496.79
  Q 1129.37 497.42 1129.60 498.74
  Q 1129.67 499.13 1130.07 499.12
  Q 1130.74 499.10 1130.49 499.73
  Q 1130.19 500.48 1130.47 501.23
  Q 1132.33 506.25 1135.97 510.12
  Q 1136.33 510.50 1136.36 511.01
  Q 1136.37 511.16 1136.38 511.31
  Q 1136.39 511.59 1136.54 511.82
  Q 1138.62 515.13 1141.60 517.66
  Q 1142.27 518.23 1142.49 519.09
  A 1.53 1.51 14.6 0 0 1142.90 519.78
  L 1145.90 522.62
  Q 1146.23 522.93 1146.68 522.92
  Q 1147.47 522.90 1147.80 523.66
  Q 1147.86 523.81 1148.02 523.87
  Q 1148.17 523.92 1148.33 523.88
  Q 1148.51 523.84 1148.64 523.98
  Q 1149.67 525.11 1150.79 526.15
  Q 1151.19 526.52 1151.10 527.06
  Q 1151.07 527.26 1151.11 527.46
  Q 1151.18 527.76 1151.45 527.92
  Q 1152.82 528.76 1153.08 530.13
  Q 1153.15 530.53 1153.43 530.82
  L 1156.91 534.29
  A 0.68 0.68 0.0 0 1 1157.12 534.78
  L 1157.12 535.31
  Q 1157.12 535.59 1157.31 535.77
  L 1159.88 538.23
  A 0.82 0.81 19.3 0 1 1160.13 538.74
  Q 1160.16 538.97 1160.11 539.19
  Q 1160.05 539.48 1160.27 539.69
  L 1161.86 541.20
  Q 1162.12 541.44 1162.12 541.79
  L 1162.12 542.29
  Q 1162.12 542.55 1162.31 542.74
  L 1163.82 544.17
  A 1.01 1.00 21.2 0 1 1164.14 544.88
  Q 1164.14 545.05 1164.11 545.22
  Q 1164.06 545.45 1164.23 545.62
  L 1168.80 550.17
  Q 1169.17 550.54 1169.16 551.06
  Q 1169.15 552.41 1168.02 553.33
  Q 1167.55 553.71 1167.79 554.23
  Q 1167.81 554.27 1167.86 554.29
  Q 1168.02 554.37 1168.15 554.23
  Q 1170.84 551.56 1173.60 551.75
  Q 1162.57 560.29 1150.67 567.17
  Q 1147.06 569.25 1143.66 571.16
  Q 1125.88 581.11 1105.23 588.02
  Q 1074.59 598.26 1044.23 599.42
  C 1022.64 600.25 1001.71 599.13 978.80 593.68
  Q 979.03 592.35 980.34 592.30
  Q 981.12 592.27 981.12 591.49
  L 981.12 589.45
  Q 981.12 589.30 981.25 589.23
  L 981.58 589.06
  Q 982.12 588.76 982.12 588.15
  L 982.12 582.75
  Q 982.12 582.20 982.65 582.05
  Q 982.79 582.01 982.87 581.88
  Q 983.13 581.51 983.13 581.09
  Q 983.13 579.99 983.11 578.81
  Q 983.10 578.24 983.62 577.99
  Q 984.34 577.66 984.14 576.83
  Q 983.97 576.11 984.70 576.03
  Q 984.91 576.01 984.95 575.64
  Q 985.01 575.17 984.59 574.95
  L 984.26 574.77
  A 0.30 0.30 0.0 0 1 984.26 574.24
  Q 985.55 573.58 985.09 572.02
  A 0.77 0.76 59.5 0 1 985.28 571.26
  Q 985.41 571.12 985.59 571.05
  Q 986.12 570.82 986.12 570.24
  L 986.12 565.89
  A 1.00 1.00 0.0 0 1 986.48 565.12
  Q 987.54 564.25 987.07 562.77
  A 0.50 0.50 0.0 0 1 987.41 562.14
  Q 988.28 561.89 988.10 561.01
  Q 987.98 560.43 988.48 560.11
  Q 989.48 559.47 989.10 558.27
  Q 988.88 557.61 989.44 557.19
  Q 990.49 556.41 990.08 554.99
  Q 989.93 554.45 990.40 554.18
  Q 990.81 553.96 990.82 553.50
  Q 990.89 550.77 991.14 547.97
  Q 991.18 547.48 991.08 547.00
  Q 990.95 546.37 991.51 546.12
  Q 991.95 545.92 992.09 545.46
  Q 992.31 544.75 991.89 543.98
  Q 991.77 543.77 991.55 543.87
  Q 991.33 543.97 991.26 543.78
  Q 991.09 543.28 991.56 543.05
  Q 992.35 542.66 992.14 541.73
  Q 992.01 541.16 992.60 541.07
  Q 992.80 541.04 992.91 540.86
  Q 993.11 540.52 993.12 540.15
  Q 993.14 538.99 993.10 537.71
  Q 993.09 537.16 993.63 537.05
  Q 993.80 537.02 993.90 536.87
  Q 994.14 536.49 994.13 536.05
  Q 994.11 534.75 994.12 533.47
  A 0.38 0.38 0.0 0 1 994.50 533.10
  Q 994.74 533.10 994.88 532.91
  Q 995.18 532.49 995.15 531.96
  Q 995.07 530.76 995.11 529.70
  Q 995.13 529.23 995.56 529.04
  Q 996.35 528.67 996.14 527.77
  Q 996.00 527.16 996.62 527.06
  Q 996.80 527.03 996.91 526.86
  Q 997.12 526.52 997.12 526.14
  Q 997.14 524.51 997.11 522.71
  Q 997.09 522.15 997.64 522.04
  Q 997.80 522.01 997.88 521.88
  Q 998.13 521.52 998.13 521.09
  Q 998.14 518.00 998.09 514.88
  Q 998.08 514.42 998.46 514.16
  Q 999.48 513.43 999.10 512.06
  Q 998.93 511.48 999.44 511.15
  Q 1000.51 510.46 1000.08 508.99
  A 0.74 0.73 -31.3 0 1 1000.26 508.27
  Q 1000.41 508.12 1000.60 508.04
  Q 1001.12 507.81 1001.12 507.24
  L 1001.12 501.75
  Q 1001.12 501.19 1001.66 501.05
  Q 1001.80 501.01 1001.89 500.88
  Q 1002.12 500.52 1002.13 500.12
  Q 1002.14 498.86 1002.09 497.49
  Q 1002.07 496.98 1002.58 497.02
  Q 1002.78 497.03 1002.88 496.89
  Q 1003.14 496.49 1003.14 496.01
  Q 1003.12 494.16 1003.10 492.47
  Q 1003.10 492.31 1003.23 492.24
  L 1003.56 492.06
  Q 1003.99 491.84 1003.84 491.38
  Q 1003.69 490.88 1003.91 490.39
  Q 1004.11 489.94 1004.60 489.90
  L 1007.52 489.67
  Q 1030.72 494.33 1052.72 490.42
  Q 1087.14 484.29 1113.48 461.47
  Q 1115.82 459.44 1118.30 457.40
  Z"
/>
<path fill="#d9d190" fill-opacity="0.851" d="
  M 951.36 462.45
  Q 971.96 479.84 998.07 487.20
  Q 1002.75 488.52 1007.52 489.67
  L 1004.60 489.90
  Q 1004.11 489.94 1003.91 490.39
  Q 1003.69 490.88 1003.84 491.38
  Q 1003.99 491.84 1003.56 492.06
  L 1003.23 492.24
  Q 1003.10 492.31 1003.10 492.47
  Q 1003.12 494.16 1003.14 496.01
  Q 1003.14 496.49 1002.88 496.89
  Q 1002.78 497.03 1002.58 497.02
  Q 1002.07 496.98 1002.09 497.49
  Q 1002.14 498.86 1002.13 500.12
  Q 1002.12 500.52 1001.89 500.88
  Q 1001.80 501.01 1001.66 501.05
  Q 1001.12 501.19 1001.12 501.75
  L 1001.12 507.24
  Q 1001.12 507.81 1000.60 508.04
  Q 1000.41 508.12 1000.26 508.27
  A 0.74 0.73 -31.3 0 0 1000.08 508.99
  Q 1000.51 510.46 999.44 511.15
  Q 998.93 511.48 999.10 512.06
  Q 999.48 513.43 998.46 514.16
  Q 998.08 514.42 998.09 514.88
  Q 998.14 518.00 998.13 521.09
  Q 998.13 521.52 997.88 521.88
  Q 997.80 522.01 997.64 522.04
  Q 997.09 522.15 997.11 522.71
  Q 997.14 524.51 997.12 526.14
  Q 997.12 526.52 996.91 526.86
  Q 996.80 527.03 996.62 527.06
  Q 996.00 527.16 996.14 527.77
  Q 996.35 528.67 995.56 529.04
  Q 995.13 529.23 995.11 529.70
  Q 995.07 530.76 995.15 531.96
  Q 995.18 532.49 994.88 532.91
  Q 994.74 533.10 994.50 533.10
  A 0.38 0.38 0.0 0 0 994.12 533.47
  Q 994.11 534.75 994.13 536.05
  Q 994.14 536.49 993.90 536.87
  Q 993.80 537.02 993.63 537.05
  Q 993.09 537.16 993.10 537.71
  Q 993.14 538.99 993.12 540.15
  Q 993.11 540.52 992.91 540.86
  Q 992.80 541.04 992.60 541.07
  Q 992.01 541.16 992.14 541.73
  Q 992.35 542.66 991.56 543.05
  Q 991.09 543.28 991.26 543.78
  Q 991.33 543.97 991.55 543.87
  Q 991.77 543.77 991.89 543.98
  Q 992.31 544.75 992.09 545.46
  Q 991.95 545.92 991.51 546.12
  Q 990.95 546.37 991.08 547.00
  Q 991.18 547.48 991.14 547.97
  Q 990.89 550.77 990.82 553.50
  Q 990.81 553.96 990.40 554.18
  Q 989.93 554.45 990.08 554.99
  Q 990.49 556.41 989.44 557.19
  Q 988.88 557.61 989.10 558.27
  Q 989.48 559.47 988.48 560.11
  Q 987.98 560.43 988.10 561.01
  Q 988.28 561.89 987.41 562.14
  A 0.50 0.50 0.0 0 0 987.07 562.77
  Q 987.54 564.25 986.48 565.12
  A 1.00 1.00 0.0 0 0 986.12 565.89
  L 986.12 570.24
  Q 986.12 570.82 985.59 571.05
  Q 985.41 571.12 985.28 571.26
  A 0.77 0.76 59.5 0 0 985.09 572.02
  Q 985.55 573.58 984.26 574.24
  A 0.30 0.30 0.0 0 0 984.26 574.77
  L 984.59 574.95
  Q 985.01 575.17 984.95 575.64
  Q 984.91 576.01 984.70 576.03
  Q 983.97 576.11 984.14 576.83
  Q 984.34 577.66 983.62 577.99
  Q 983.10 578.24 983.11 578.81
  Q 983.13 579.99 983.13 581.09
  Q 983.13 581.51 982.87 581.88
  Q 982.79 582.01 982.65 582.05
  Q 982.12 582.20 982.12 582.75
  L 982.12 588.15
  Q 982.12 588.76 981.58 589.06
  L 981.25 589.23
  Q 981.12 589.30 981.12 589.45
  L 981.12 591.49
  Q 981.12 592.27 980.34 592.30
  Q 979.03 592.35 978.80 593.68
  Q 924.06 580.71 881.19 544.25
  Q 882.00 542.01 882.66 543.80
  A 2.18 2.15 -89.1 0 0 883.86 545.05
  Q 885.46 545.72 886.03 544.56
  Q 886.26 544.12 886.75 544.12
  L 887.17 544.12
  Q 887.49 544.12 887.75 543.95
  Q 888.24 543.62 888.14 543.06
  Q 888.05 542.57 888.41 542.21
  L 891.91 538.71
  A 0.68 0.68 0.0 0 0 892.12 538.22
  L 892.12 537.71
  Q 892.12 537.45 892.31 537.27
  L 893.88 535.79
  A 0.80 0.78 68.7 0 0 894.12 535.22
  L 894.12 534.75
  Q 894.12 534.49 894.30 534.30
  L 898.79 529.85
  Q 899.12 529.51 899.12 529.04
  L 899.12 528.55
  Q 899.12 528.17 899.50 528.11
  Q 899.73 528.08 899.95 528.14
  A 0.94 0.94 0.0 0 0 900.98 527.72
  Q 901.24 527.30 901.10 526.83
  A 0.63 0.63 0.0 0 1 901.56 526.05
  Q 902.11 525.92 902.08 525.37
  A 2.20 2.07 -9.0 0 1 903.76 523.20
  Q 905.78 522.70 906.11 520.87
  Q 906.18 520.46 906.48 520.16
  L 909.86 516.76
  Q 910.11 516.50 910.14 516.14
  Q 910.15 516.00 910.12 515.87
  Q 910.05 515.55 910.28 515.32
  L 912.38 513.27
  Q 912.58 513.07 912.86 513.09
  Q 913.02 513.10 913.18 513.14
  Q 913.49 513.21 913.74 513.01
  Q 914.26 512.60 914.11 512.00
  A 0.87 0.86 67.5 0 1 914.50 511.04
  Q 916.07 510.09 916.16 508.64
  Q 916.19 508.18 916.61 507.99
  Q 917.27 507.71 917.15 507.01
  Q 917.08 506.55 917.41 506.21
  L 922.92 500.71
  A 0.73 0.69 -24.3 0 0 923.12 500.22
  L 923.12 499.75
  Q 923.12 499.49 923.30 499.31
  L 928.79 493.84
  Q 929.12 493.51 929.12 493.04
  L 929.12 492.55
  Q 929.12 492.17 929.50 492.12
  Q 929.78 492.08 930.07 492.15
  A 0.77 0.76 33.5 0 0 930.69 492.03
  Q 931.24 491.65 931.13 491.06
  Q 931.03 490.55 931.40 490.20
  L 932.93 488.75
  Q 933.12 488.57 933.12 488.30
  L 933.12 487.76
  Q 933.12 487.50 933.30 487.32
  L 935.59 485.00
  Q 935.95 484.63 936.06 484.13
  Q 936.43 482.31 938.30 482.04
  Q 938.80 481.97 939.07 481.55
  Q 939.21 481.32 939.13 481.10
  Q 938.89 480.39 939.57 480.05
  Q 940.37 479.66 940.11 478.78
  Q 939.95 478.25 940.50 478.14
  Q 940.73 478.09 940.97 478.12
  Q 941.45 478.17 941.80 477.83
  L 943.88 475.75
  Q 944.12 475.51 944.12 475.16
  L 944.12 474.75
  Q 944.12 474.49 944.30 474.30
  L 948.88 469.76
  Q 949.12 469.51 949.12 469.17
  L 949.12 468.71
  Q 949.12 468.45 949.31 468.27
  L 950.82 466.84
  Q 951.19 466.49 951.11 465.98
  Q 951.03 465.48 951.27 465.05
  Q 951.52 464.58 951.13 464.22
  Q 949.45 462.68 951.36 462.45
  Z"
/>
</svg>
