<?xml version="1.0" encoding="UTF-8" standalone="no"?>
<!DOCTYPE svg PUBLIC "-//W3C//DTD SVG 1.1//EN" "http://www.w3.org/Graphics/SVG/1.1/DTD/svg11.dtd">
<svg xmlns="http://www.w3.org/2000/svg" version="1.1" viewBox="0.00 0.00 1172.00 178.00">
<g stroke-width="2.00" fill="none" stroke-linecap="butt">
<path stroke="#c6e4e9" vector-effect="non-scaling-stroke" d="
  M 608.00 50.02
  L 607.09 50.34"
/>
<path stroke="#c5e2d8" vector-effect="non-scaling-stroke" d="
  M 607.09 50.34
  L 580.62 25.19
  Q 579.77 24.37 580.03 25.52
  L 587.65 59.38
  Q 587.80 60.05 587.16 59.80
  L 554.95 46.97
  Q 553.98 46.58 554.57 47.44
  L 573.99 75.58
  A 0.61 0.60 65.2 0 1 573.65 76.51
  L 541.03 85.25
  Q 540.26 85.45 540.99 85.78
  C 544.82 87.47 549.10 88.51 553.14 89.94
  Q 563.46 93.58 573.88 97.00
  A 0.51 0.51 0.0 0 1 574.09 97.83
  L 549.48 124.00
  A 0.16 0.15 -74.0 0 0 549.62 124.26
  L 583.75 116.43"
/>
<path stroke="#c5e0c3" vector-effect="non-scaling-stroke" d="
  M 583.75 116.43
  Q 584.29 116.73 584.84 117.67"
/>
<path stroke="#c5e2d8" vector-effect="non-scaling-stroke" d="
  M 584.84 117.67
  L 571.41 150.55
  Q 570.97 151.61 571.92 150.97
  L 601.10 131.33
  A 0.40 0.39 -23.1 0 1 601.71 131.57
  L 608.83 165.48
  Q 609.14 166.93 609.69 165.56
  L 622.30 134.43"
/>
<path stroke="#c5e0c3" vector-effect="non-scaling-stroke" d="
  M 622.30 134.43
  L 622.48 134.09
  A 0.81 0.79 -76.3 0 1 623.14 133.68
  Q 627.62 133.43 631.26 132.21
  A 1.06 1.05 -27.7 0 1 632.42 132.56
  Q 647.41 151.72 671.84 150.30
  Q 674.70 150.13 677.09 149.03
  C 683.05 146.27 684.17 138.54 680.39 133.62
  C 677.84 130.31 674.15 129.58 669.98 130.02
  Q 658.76 131.20 650.05 122.12
  A 0.56 0.56 0.0 0 1 650.03 121.36
  L 653.47 117.44"
/>
<path stroke="#c5e2d8" vector-effect="non-scaling-stroke" d="
  M 653.47 117.44
  L 689.67 120.55
  Q 690.73 120.64 689.90 119.97
  L 662.32 97.74"
/>
<path stroke="#c5e0c3" vector-effect="non-scaling-stroke" d="
  M 662.32 97.74
  Q 662.20 96.92 662.58 96.87"
/>
<path stroke="#c5e2d8" vector-effect="non-scaling-stroke" d="
  M 662.58 96.87
  L 696.24 82.64
  Q 697.14 82.26 696.18 82.08
  L 661.75 75.62
  Q 660.74 75.43 661.40 74.64
  L 683.81 47.77
  Q 684.40 47.06 683.51 47.32
  L 649.77 57.28
  A 0.46 0.46 0.0 0 1 649.18 56.76
  L 654.80 22.20
  Q 654.98 21.07 654.20 21.91
  L 630.10 47.65"
/>
<path stroke="#c5e0c3" vector-effect="non-scaling-stroke" d="
  M 630.10 47.65
  Q 630.50 47.46 629.43 47.74"
/>
<path stroke="#c5e2d8" vector-effect="non-scaling-stroke" d="
  M 629.43 47.74
  L 616.06 14.55
  Q 615.85 14.03 615.73 14.58
  L 608.00 50.02"
/>
<path stroke="#fef8c1" vector-effect="non-scaling-stroke" d="
  M 629.43 47.74
  L 623.57 49.23"
/>
<path stroke="#fffce7" vector-effect="non-scaling-stroke" d="
  M 623.57 49.23
  Q 616.96 49.20 610.50 50.45
  Q 609.62 50.62 608.00 50.02"
/>
<path stroke="#c6e4e9" vector-effect="non-scaling-stroke" d="
  M 622.07 65.97
  Q 619.15 66.43 616.28 66.92
  Q 607.37 68.46 602.31 73.50"
/>
<path stroke="#fef8c1" vector-effect="non-scaling-stroke" d="
  M 662.32 97.74
  Q 660.08 108.58 653.47 117.44"
/>
<path stroke="#fef8c1" vector-effect="non-scaling-stroke" d="
  M 622.30 134.43
  Q 621.35 133.79 620.50 133.85
  Q 611.89 134.55 604.04 131.12
  Q 603.58 130.92 603.09 130.90
  Q 601.93 130.85 600.25 129.87
  Q 590.89 124.44 584.84 117.67"
/>
<path stroke="#c5e0c3" vector-effect="non-scaling-stroke" d="
  M 596.55 97.29
  Q 599.86 107.43 609.75 111.75
  C 628.28 119.85 647.76 101.65 641.25 82.66
  Q 639.01 76.13 633.52 71.71
  Q 631.58 70.15 627.94 68.58
  Q 624.96 67.29 622.07 65.97"
/>
<path stroke="#fffad1" vector-effect="non-scaling-stroke" d="
  M 622.07 65.97
  Q 614.77 56.67 623.57 49.23"
/>
<path stroke="#fffce7" vector-effect="non-scaling-stroke" d="
  M 607.09 50.34
  L 591.73 58.95
  A 1.22 1.22 0.0 0 0 591.51 60.92
  Q 597.94 66.63 602.31 73.50"
/>
<path stroke="#c5e2d8" vector-effect="non-scaling-stroke" d="
  M 602.31 73.50
  Q 592.68 84.09 596.55 97.29"
/>
<path stroke="#fef8c1" vector-effect="non-scaling-stroke" d="
  M 596.55 97.29
  Q 595.09 97.35 594.10 98.07
  Q 593.70 98.35 593.21 98.40
  Q 590.69 98.65 588.91 99.86
  Q 587.95 100.51 586.87 100.35
  Q 586.35 100.28 586.04 100.71
  Q 585.88 100.94 585.61 101.04
  Q 585.29 101.16 584.94 101.11
  Q 582.73 100.84 581.22 102.87
  Q 579.95 104.59 578.52 103.00
  Q 577.90 102.30 577.31 101.65
  Q 576.66 100.94 576.93 101.86
  Q 579.07 109.30 583.75 116.43"
/>
<path stroke="#fef8c1" vector-effect="non-scaling-stroke" d="
  M 662.58 96.87
  Q 664.22 81.76 657.80 69.73
  Q 648.94 53.12 630.10 47.65"
/>
<path stroke="#578e98" vector-effect="non-scaling-stroke" d="
  M 293.2400 47.8992
  A 10.98 10.53 0.1 0 0 282.2784 37.3500
  A 10.98 10.53 0.1 0 0 271.2800 47.8608
  A 10.98 10.53 0.1 0 0 282.2416 58.4100
  A 10.98 10.53 0.1 0 0 293.2400 47.8992"
/>
<path stroke="#578e98" vector-effect="non-scaling-stroke" d="
  M 787.7420 43.7440
  A 0.30 0.30 0.0 0 0 787.4425 43.4435
  L 772.0225 43.4166
  A 0.30 0.30 0.0 0 0 771.7220 43.7160
  L 771.6980 57.4560
  A 0.30 0.30 0.0 0 0 771.9975 57.7565
  L 787.4175 57.7834
  A 0.30 0.30 0.0 0 0 787.7180 57.4840
  L 787.7420 43.7440"
/>
<path stroke="#578e98" vector-effect="non-scaling-stroke" d="
  M 883.11 88.88
  A 0.32 0.32 0.0 0 1 882.85 89.00
  L 879.94 88.98
  A 0.32 0.32 0.0 0 1 879.62 88.66
  L 879.62 45.72
  A 0.32 0.32 0.0 0 0 879.30 45.40
  L 864.11 45.40
  A 0.32 0.32 0.0 0 0 863.79 45.72
  L 863.79 123.68
  A 0.32 0.32 0.0 0 0 864.11 124.00
  L 879.30 124.00
  A 0.32 0.32 0.0 0 0 879.62 123.68
  L 879.61 101.82
  A 0.32 0.32 0.0 0 1 879.93 101.50
  L 882.89 101.51
  A 0.32 0.32 0.0 0 1 883.14 101.63
  L 900.70 123.87
  A 0.32 0.32 0.0 0 0 900.95 123.99
  L 919.27 124.01
  A 0.32 0.32 0.0 0 0 919.53 123.49
  L 897.34 95.10
  A 0.32 0.32 0.0 0 1 897.34 94.70
  L 918.99 67.06
  A 0.32 0.32 0.0 0 0 918.74 66.54
  L 900.97 66.57
  A 0.32 0.32 0.0 0 0 900.72 66.69
  L 883.11 88.88"
/>
<path stroke="#578e98" vector-effect="non-scaling-stroke" d="
  M 249.52 79.02
  L 264.75 78.90
  Q 265.40 78.90 265.40 78.25
  L 265.47 65.58
  A 0.64 0.64 0.0 0 0 264.83 64.94
  L 249.33 64.96
  Q 248.71 64.96 248.71 64.33
  L 248.78 49.04
  A 0.49 0.49 0.0 0 0 248.29 48.55
  L 232.44 48.54
  A 0.67 0.66 -0.8 0 0 231.77 49.22
  Q 231.87 53.01 231.76 56.92
  C 231.55 65.24 223.65 65.15 217.66 64.88
  A 1.05 1.04 -1.9 0 0 216.57 66.04
  Q 217.28 72.25 216.88 78.52
  Q 216.84 79.16 217.48 79.16
  L 229.77 79.04
  A 0.51 0.51 0.0 0 1 230.28 79.55
  Q 230.25 93.81 230.28 106.75
  Q 230.30 112.41 232.75 117.42
  Q 233.61 119.19 235.06 120.78
  Q 236.89 122.78 239.10 123.66
  Q 249.25 127.72 262.69 124.68
  Q 263.29 124.54 263.29 123.93
  L 263.40 111.76
  A 0.43 0.42 84.0 0 0 262.89 111.34
  C 257.16 112.61 248.52 113.02 248.66 104.50
  Q 248.87 92.48 248.63 79.94
  Q 248.61 79.03 249.52 79.02"
/>
<path stroke="#c5e2d8" vector-effect="non-scaling-stroke" d="
  M 169.97 114.24
  Q 158.08 111.53 154.46 99.98
  Q 153.75 97.71 153.91 95.26"
/>
<path stroke="#a5d4d6" vector-effect="non-scaling-stroke" d="
  M 153.91 95.26
  Q 153.92 85.05 161.73 79.21
  A 1.69 1.69 0.0 0 0 162.00 76.74
  Q 158.56 72.78 155.90 67.90
  Q 155.05 66.34 153.69 65.14
  Q 153.27 64.77 152.81 65.09
  Q 135.82 77.14 137.13 98.31"
/>
<path stroke="#c5e2d8" vector-effect="non-scaling-stroke" d="
  M 137.13 98.31
  Q 138.31 109.77 145.46 118.29
  Q 152.06 126.15 162.18 129.51"
/>
<path stroke="#c5e0c3" vector-effect="non-scaling-stroke" d="
  M 162.18 129.51
  Q 184.04 135.53 199.01 120.76
  Q 209.39 110.52 209.72 94.87
  Q 209.92 85.57 204.60 76.44
  Q 198.21 65.48 185.04 60.59
  Q 179.90 58.68 176.06 62.08
  C 171.83 65.82 172.34 72.91 177.59 75.69
  C 180.30 77.12 183.09 77.74 185.54 79.78
  C 194.24 87.03 195.32 99.38 187.82 107.97
  Q 181.44 115.28 169.97 114.24"
/>
<path stroke="#fef8c1" vector-effect="non-scaling-stroke" d="
  M 162.18 129.51
  L 162.31 127.16
  Q 162.34 126.64 162.71 126.28
  Q 163.01 125.99 163.38 125.81
  Q 164.08 125.47 163.89 124.72
  Q 163.62 123.64 164.37 122.89
  Q 164.73 122.52 164.84 122.02
  Q 165.12 120.71 166.08 119.96
  Q 166.47 119.67 166.30 119.21
  Q 166.05 118.55 166.08 117.86
  Q 166.10 117.42 166.42 117.11
  C 167.10 116.48 166.88 115.77 167.53 115.10
  Q 168.66 113.95 169.97 114.24"
/>
<path stroke="#deecd4" vector-effect="non-scaling-stroke" d="
  M 153.91 95.26
  Q 153.73 95.50 153.55 95.22
  Q 153.38 94.94 153.44 94.62
  Q 153.48 94.37 153.27 94.51
  Q 152.34 95.08 150.99 94.88
  Q 149.00 94.58 147.01 94.37
  Q 146.50 94.31 146.07 94.57
  Q 145.47 94.93 144.95 94.42
  Q 144.54 94.02 143.98 94.08
  L 138.48 94.60
  Q 138.01 94.64 137.90 95.10
  L 137.13 98.31"
/>
<path stroke="#578e98" vector-effect="non-scaling-stroke" d="
  M 30.70 120.99
  C 32.94 122.71 35.45 124.55 38.34 124.83
  Q 40.44 125.03 42.52 125.43
  Q 50.67 126.99 59.41 123.37
  Q 69.15 119.34 73.98 108.65
  C 74.64 107.16 74.66 105.70 75.20 104.17
  Q 75.77 102.53 75.97 100.74
  C 76.89 92.23 75.96 83.05 71.11 76.15
  Q 62.37 63.70 46.43 63.78
  C 39.67 63.82 33.79 66.06 29.26 70.95
  A 0.78 0.78 0.0 0 1 27.93 70.60
  L 26.74 65.61
  Q 26.58 64.92 25.87 64.92
  L 12.44 64.87
  Q 11.75 64.87 11.75 65.56
  L 11.74 148.49
  Q 11.74 148.74 11.99 148.74
  L 29.28 148.74
  Q 29.80 148.74 29.80 148.22
  L 29.85 121.41
  A 0.53 0.53 0.0 0 1 30.70 120.99"
/>
<path stroke="#578e98" vector-effect="non-scaling-stroke" d="
  M 108.86 86.35
  C 113.22 80.85 123.01 80.48 129.34 81.78
  A 0.55 0.55 0.0 0 0 130.00 81.24
  L 130.00 64.46
  Q 130.00 63.82 129.36 63.79
  C 119.49 63.40 112.54 64.28 106.70 72.81
  Q 105.45 74.62 105.01 72.47
  L 103.58 65.58
  Q 103.45 64.97 102.83 64.97
  L 87.40 64.92
  Q 86.53 64.91 86.49 65.78
  Q 86.34 69.17 86.35 72.42
  Q 86.45 100.37 86.54 124.32
  A 0.48 0.47 0.0 0 0 87.02 124.79
  L 104.58 124.76
  A 0.68 0.67 89.6 0 0 105.25 124.07
  Q 105.09 108.96 105.35 96.09
  Q 105.46 90.64 108.86 86.35"
/>
<path stroke="#578e98" vector-effect="non-scaling-stroke" d="
  M 404.27 79.48
  C 409.97 78.03 415.72 82.05 415.74 88.16
  Q 415.81 104.35 415.75 124.19
  A 0.60 0.60 0.0 0 0 416.36 124.79
  L 433.82 124.75
  A 0.67 0.66 90.0 0 0 434.48 124.08
  Q 434.46 106.79 434.47 90.25
  C 434.47 82.74 439.66 77.78 447.09 79.71
  C 453.30 81.33 454.11 86.94 454.04 92.79
  Q 453.86 108.94 453.98 124.25
  Q 453.99 124.78 454.52 124.78
  L 472.00 124.74
  A 0.39 0.39 0.0 0 0 472.39 124.34
  Q 472.20 109.56 472.44 94.29
  Q 472.66 80.79 471.04 76.38
  Q 466.18 63.18 449.34 63.84
  Q 438.94 64.25 431.80 72.65
  A 0.77 0.76 49.8 0 1 430.56 72.54
  Q 426.40 65.57 419.82 64.33
  Q 406.03 61.74 397.76 71.79
  A 0.70 0.69 57.9 0 1 396.55 71.51
  L 395.05 65.41
  Q 394.92 64.90 394.41 64.90
  L 378.44 64.86
  A 0.45 0.45 0.0 0 0 377.99 65.31
  L 377.99 124.51
  A 0.27 0.27 0.0 0 0 378.26 124.78
  L 395.89 124.76
  A 0.74 0.74 0.0 0 0 396.63 124.02
  Q 396.60 107.17 396.62 90.68
  Q 396.64 81.43 404.27 79.48"
/>
<path stroke="#578e98" vector-effect="non-scaling-stroke" d="
  M 291.5716 65.2861
  A 0.37 0.37 0.0 0 0 291.2022 64.9155
  L 273.5423 64.8846
  A 0.37 0.37 0.0 0 0 273.1716 65.2540
  L 273.0684 124.3939
  A 0.37 0.37 0.0 0 0 273.4378 124.7645
  L 291.0977 124.7954
  A 0.37 0.37 0.0 0 0 291.4684 124.4260
  L 291.5716 65.2861"
/>
<path stroke="#578e98" vector-effect="non-scaling-stroke" d="
  M 306.88 114.67
  Q 306.86 115.00 306.96 115.33
  Q 307.06 115.65 307.28 115.87
  Q 309.60 118.18 311.89 120.59
  C 313.69 122.48 315.82 123.57 318.26 124.37
  Q 327.27 127.31 336.31 124.88
  C 340.31 123.80 343.60 121.35 346.28 118.32
  A 0.97 0.97 0.0 0 1 347.96 118.75
  L 349.14 124.09
  Q 349.29 124.78 350.00 124.78
  L 365.77 124.76
  A 0.66 0.66 0.0 0 0 366.43 124.10
  L 366.44 65.29
  A 0.39 0.38 90.0 0 0 366.06 64.90
  L 348.12 64.86
  A 0.34 0.33 0.0 0 0 347.78 65.19
  Q 347.65 78.22 347.81 92.02
  Q 347.91 100.25 346.45 103.31
  Q 343.30 109.95 335.32 110.35
  C 325.98 110.83 321.88 104.13 321.93 95.57
  Q 322.03 80.05 321.96 65.55
  A 0.66 0.65 89.6 0 0 321.31 64.90
  L 304.02 64.85
  Q 303.51 64.85 303.51 65.36
  Q 303.36 94.41 303.63 104.03
  C 303.69 106.23 304.38 108.72 305.30 110.76
  Q 306.08 112.49 306.48 114.37
  Q 306.49 114.45 306.55 114.51
  Q 306.67 114.64 306.82 114.62
  Q 306.88 114.61 306.88 114.67"
/>
<path stroke="#578e98" vector-effect="non-scaling-stroke" d="
  M 836.94 104.26
  C 833.81 110.63 825.64 111.72 820.45 107.48
  C 812.20 100.74 814.05 81.51 826.41 80.54
  Q 833.43 79.99 836.89 86.25
  Q 837.25 86.90 837.95 86.66
  L 852.49 81.84
  A 0.40 0.39 -21.2 0 0 852.73 81.31
  Q 847.85 69.72 836.75 66.60
  C 815.76 60.70 798.24 75.60 799.35 97.00
  Q 800.00 109.55 808.06 117.37
  C 814.04 123.18 821.43 125.80 829.58 125.22
  Q 846.53 124.02 852.64 109.44
  Q 852.88 108.86 852.28 108.66
  L 837.70 103.94
  A 0.63 0.63 0.0 0 0 836.94 104.26"
/>
<path stroke="#578e98" vector-effect="non-scaling-stroke" d="
  M 941.65 85.36
  C 940.79 82.36 943.29 79.65 946.06 79.13
  Q 953.98 77.64 955.86 84.65
  Q 955.99 85.17 956.53 85.17
  L 971.06 85.16
  A 0.68 0.67 -1.2 0 0 971.74 84.46
  C 971.43 73.89 962.37 67.12 952.59 65.68
  C 938.58 63.63 922.10 70.72 924.55 87.57
  C 926.30 99.62 940.98 100.64 950.07 102.65
  C 953.43 103.39 956.92 105.75 954.25 109.51
  Q 952.69 111.72 949.88 112.22
  Q 941.38 113.75 939.28 106.57
  Q 939.11 106.00 938.51 106.00
  L 923.50 106.00
  Q 922.89 106.00 922.91 106.61
  C 923.36 121.82 937.72 125.91 950.19 125.19
  C 962.36 124.50 974.38 118.02 971.79 103.67
  C 969.82 92.78 956.09 91.44 947.66 89.20
  C 945.57 88.64 942.32 87.72 941.65 85.36"
/>
<path stroke="#578e98" vector-effect="non-scaling-stroke" d="
  M 1010.03 80.54
  C 1013.54 80.71 1016.98 83.15 1018.40 86.38
  A 0.66 0.66 0.0 0 0 1019.21 86.74
  L 1034.04 81.83
  A 0.30 0.30 0.0 0 0 1034.23 81.43
  Q 1029.20 68.89 1016.23 66.07
  C 1003.01 63.20 990.79 68.31 984.34 80.05
  Q 980.67 86.72 980.80 95.96
  C 981.05 113.39 994.11 126.52 1011.76 125.17
  C 1021.94 124.39 1030.37 119.05 1034.10 109.40
  Q 1034.31 108.84 1033.74 108.66
  L 1019.26 103.97
  Q 1018.70 103.78 1018.43 104.31
  C 1014.07 112.60 1002.21 111.56 998.57 103.11
  C 994.62 93.91 997.80 79.96 1010.03 80.54"
/>
<path stroke="#578e98" vector-effect="non-scaling-stroke" d="
  M 1075.28 118.04
  L 1075.25 123.50
  A 0.50 0.50 0.0 0 0 1075.75 124.00
  L 1088.30 124.00
  Q 1089.02 124.00 1089.02 123.28
  Q 1088.94 106.01 1089.05 88.59
  Q 1089.09 83.31 1088.11 79.55
  C 1086.12 71.93 1078.68 67.10 1071.16 65.86
  Q 1056.12 63.39 1046.27 73.88
  Q 1042.47 77.93 1041.53 84.19
  Q 1041.42 84.95 1042.19 84.95
  L 1056.33 84.94
  A 0.92 0.91 -77.0 0 0 1057.15 84.42
  Q 1060.05 78.22 1066.73 79.11
  C 1073.21 79.97 1073.44 84.72 1073.23 90.04
  Q 1073.20 90.59 1072.65 90.58
  C 1060.68 90.46 1038.82 91.54 1039.56 109.07
  C 1040.12 122.42 1051.67 127.03 1063.31 124.85
  Q 1070.88 123.44 1074.77 117.88
  Q 1075.29 117.13 1075.28 118.04"
/>
<path stroke="#578e98" vector-effect="non-scaling-stroke" d="
  M 1119.43 73.11
  L 1119.46 67.01
  A 0.45 0.45 0.0 0 0 1119.01 66.56
  L 1104.22 66.55
  Q 1103.74 66.55 1103.74 67.03
  L 1103.73 123.49
  A 0.51 0.51 0.0 0 0 1104.24 124.00
  L 1119.01 124.00
  A 0.43 0.43 0.0 0 0 1119.44 123.57
  Q 1119.42 109.19 1119.43 93.06
  Q 1119.44 82.74 1128.28 80.82
  Q 1135.49 79.25 1138.71 84.98
  C 1139.89 87.09 1140.26 90.14 1140.26 92.58
  Q 1140.25 108.97 1140.27 123.50
  Q 1140.27 124.00 1140.77 124.00
  L 1155.25 124.00
  A 0.72 0.71 -0.4 0 0 1155.96 123.29
  Q 1156.01 106.66 1155.93 89.25
  C 1155.87 76.56 1151.21 66.58 1136.95 65.40
  Q 1125.75 64.48 1119.85 73.24
  Q 1119.42 73.87 1119.43 73.11"
/>
<path stroke="#578e98" vector-effect="non-scaling-stroke" d="
  M 739.92 117.59
  L 739.97 123.36
  Q 739.97 124.00 740.61 124.00
  L 755.46 124.00
  A 0.29 0.28 90.0 0 0 755.74 123.71
  L 755.75 67.03
  A 0.47 0.47 0.0 0 0 755.28 66.56
  L 740.51 66.56
  Q 739.95 66.56 739.95 67.11
  Q 739.95 82.48 739.95 97.91
  C 739.96 103.73 736.69 108.63 731.01 109.75
  C 724.08 111.12 719.49 106.90 719.34 99.72
  Q 719.01 83.99 719.27 67.30
  Q 719.28 66.57 718.54 66.57
  L 703.74 66.55
  A 0.36 0.36 0.0 0 0 703.38 66.91
  Q 703.33 83.27 703.39 101.72
  C 703.44 114.72 709.25 124.79 723.65 125.21
  Q 733.90 125.50 739.33 117.41
  Q 739.92 116.55 739.92 117.59"
/>
<path stroke="#578e98" vector-effect="non-scaling-stroke" d="
  M 787.59 66.94
  A 0.38 0.38 0.0 0 0 787.21 66.56
  L 772.15 66.56
  A 0.38 0.38 0.0 0 0 771.77 66.94
  L 771.77 123.62
  A 0.38 0.38 0.0 0 0 772.15 124.00
  L 787.21 124.00
  A 0.38 0.38 0.0 0 0 787.59 123.62
  L 787.59 66.94"
/>
<path stroke="#c5e2d8" vector-effect="non-scaling-stroke" d="
  M 576.80 77.82
  Q 577.35 76.80 577.57 75.74
  Q 577.73 74.96 577.11 75.46
  Q 576.02 76.33 576.24 77.72
  Q 576.38 78.58 576.80 77.82"
/>
<path stroke="#578e98" vector-effect="non-scaling-stroke" d="
  M 50.35 109.10
  C 62.89 101.66 59.15 78.27 42.85 79.35
  C 31.53 80.09 27.86 91.99 30.92 101.47
  Q 32.24 105.57 36.07 108.45
  Q 39.07 110.71 43.63 110.40
  C 45.93 110.24 48.30 110.32 50.35 109.10"
/>
<path stroke="#578e98" vector-effect="non-scaling-stroke" d="
  M 1072.69 100.49
  C 1068.35 100.30 1052.17 100.56 1055.93 109.25
  C 1057.82 113.62 1064.36 113.59 1067.86 111.80
  Q 1073.49 108.91 1073.23 101.05
  Q 1073.22 100.52 1072.69 100.49"
/>
</g>
<path fill="#8ccada" d="
  M 0.00 0.00
  L 1172.00 0.00
  L 1172.00 178.00
  L 0.00 178.00
  L 0.00 0.00
  Z
  M 608.00 50.02
  L 607.09 50.34
  L 580.62 25.19
  Q 579.77 24.37 580.03 25.52
  L 587.65 59.38
  Q 587.80 60.05 587.16 59.80
  L 554.95 46.97
  Q 553.98 46.58 554.57 47.44
  L 573.99 75.58
  A 0.61 0.60 65.2 0 1 573.65 76.51
  L 541.03 85.25
  Q 540.26 85.45 540.99 85.78
  C 544.82 87.47 549.10 88.51 553.14 89.94
  Q 563.46 93.58 573.88 97.00
  A 0.51 0.51 0.0 0 1 574.09 97.83
  L 549.48 124.00
  A 0.16 0.15 -74.0 0 0 549.62 124.26
  L 583.75 116.43
  Q 584.29 116.73 584.84 117.67
  L 571.41 150.55
  Q 570.97 151.61 571.92 150.97
  L 601.10 131.33
  A 0.40 0.39 -23.1 0 1 601.71 131.57
  L 608.83 165.48
  Q 609.14 166.93 609.69 165.56
  L 622.30 134.43
  L 622.48 134.09
  A 0.81 0.79 -76.3 0 1 623.14 133.68
  Q 627.62 133.43 631.26 132.21
  A 1.06 1.05 -27.7 0 1 632.42 132.56
  Q 647.41 151.72 671.84 150.30
  Q 674.70 150.13 677.09 149.03
  C 683.05 146.27 684.17 138.54 680.39 133.62
  C 677.84 130.31 674.15 129.58 669.98 130.02
  Q 658.76 131.20 650.05 122.12
  A 0.56 0.56 0.0 0 1 650.03 121.36
  L 653.47 117.44
  L 689.67 120.55
  Q 690.73 120.64 689.90 119.97
  L 662.32 97.74
  Q 662.20 96.92 662.58 96.87
  L 696.24 82.64
  Q 697.14 82.26 696.18 82.08
  L 661.75 75.62
  Q 660.74 75.43 661.40 74.64
  L 683.81 47.77
  Q 684.40 47.06 683.51 47.32
  L 649.77 57.28
  A 0.46 0.46 0.0 0 1 649.18 56.76
  L 654.80 22.20
  Q 654.98 21.07 654.20 21.91
  L 630.10 47.65
  Q 630.50 47.46 629.43 47.74
  L 616.06 14.55
  Q 615.85 14.03 615.73 14.58
  L 608.00 50.02
  Z
  M 293.2400 47.8992
  A 10.98 10.53 0.1 0 0 282.2784 37.3500
  A 10.98 10.53 0.1 0 0 271.2800 47.8608
  A 10.98 10.53 0.1 0 0 282.2416 58.4100
  A 10.98 10.53 0.1 0 0 293.2400 47.8992
  Z
  M 787.7420 43.7440
  A 0.30 0.30 0.0 0 0 787.4425 43.4435
  L 772.0225 43.4166
  A 0.30 0.30 0.0 0 0 771.7220 43.7160
  L 771.6980 57.4560
  A 0.30 0.30 0.0 0 0 771.9975 57.7565
  L 787.4175 57.7834
  A 0.30 0.30 0.0 0 0 787.7180 57.4840
  L 787.7420 43.7440
  Z
  M 883.11 88.88
  A 0.32 0.32 0.0 0 1 882.85 89.00
  L 879.94 88.98
  A 0.32 0.32 0.0 0 1 879.62 88.66
  L 879.62 45.72
  A 0.32 0.32 0.0 0 0 879.30 45.40
  L 864.11 45.40
  A 0.32 0.32 0.0 0 0 863.79 45.72
  L 863.79 123.68
  A 0.32 0.32 0.0 0 0 864.11 124.00
  L 879.30 124.00
  A 0.32 0.32 0.0 0 0 879.62 123.68
  L 879.61 101.82
  A 0.32 0.32 0.0 0 1 879.93 101.50
  L 882.89 101.51
  A 0.32 0.32 0.0 0 1 883.14 101.63
  L 900.70 123.87
  A 0.32 0.32 0.0 0 0 900.95 123.99
  L 919.27 124.01
  A 0.32 0.32 0.0 0 0 919.53 123.49
  L 897.34 95.10
  A 0.32 0.32 0.0 0 1 897.34 94.70
  L 918.99 67.06
  A 0.32 0.32 0.0 0 0 918.74 66.54
  L 900.97 66.57
  A 0.32 0.32 0.0 0 0 900.72 66.69
  L 883.11 88.88
  Z
  M 249.52 79.02
  L 264.75 78.90
  Q 265.40 78.90 265.40 78.25
  L 265.47 65.58
  A 0.64 0.64 0.0 0 0 264.83 64.94
  L 249.33 64.96
  Q 248.71 64.96 248.71 64.33
  L 248.78 49.04
  A 0.49 0.49 0.0 0 0 248.29 48.55
  L 232.44 48.54
  A 0.67 0.66 -0.8 0 0 231.77 49.22
  Q 231.87 53.01 231.76 56.92
  C 231.55 65.24 223.65 65.15 217.66 64.88
  A 1.05 1.04 -1.9 0 0 216.57 66.04
  Q 217.28 72.25 216.88 78.52
  Q 216.84 79.16 217.48 79.16
  L 229.77 79.04
  A 0.51 0.51 0.0 0 1 230.28 79.55
  Q 230.25 93.81 230.28 106.75
  Q 230.30 112.41 232.75 117.42
  Q 233.61 119.19 235.06 120.78
  Q 236.89 122.78 239.10 123.66
  Q 249.25 127.72 262.69 124.68
  Q 263.29 124.54 263.29 123.93
  L 263.40 111.76
  A 0.43 0.42 84.0 0 0 262.89 111.34
  C 257.16 112.61 248.52 113.02 248.66 104.50
  Q 248.87 92.48 248.63 79.94
  Q 248.61 79.03 249.52 79.02
  Z
  M 169.97 114.24
  Q 158.08 111.53 154.46 99.98
  Q 153.75 97.71 153.91 95.26
  Q 153.92 85.05 161.73 79.21
  A 1.69 1.69 0.0 0 0 162.00 76.74
  Q 158.56 72.78 155.90 67.90
  Q 155.05 66.34 153.69 65.14
  Q 153.27 64.77 152.81 65.09
  Q 135.82 77.14 137.13 98.31
  Q 138.31 109.77 145.46 118.29
  Q 152.06 126.15 162.18 129.51
  Q 184.04 135.53 199.01 120.76
  Q 209.39 110.52 209.72 94.87
  Q 209.92 85.57 204.60 76.44
  Q 198.21 65.48 185.04 60.59
  Q 179.90 58.68 176.06 62.08
  C 171.83 65.82 172.34 72.91 177.59 75.69
  C 180.30 77.12 183.09 77.74 185.54 79.78
  C 194.24 87.03 195.32 99.38 187.82 107.97
  Q 181.44 115.28 169.97 114.24
  Z
  M 30.70 120.99
  C 32.94 122.71 35.45 124.55 38.34 124.83
  Q 40.44 125.03 42.52 125.43
  Q 50.67 126.99 59.41 123.37
  Q 69.15 119.34 73.98 108.65
  C 74.64 107.16 74.66 105.70 75.20 104.17
  Q 75.77 102.53 75.97 100.74
  C 76.89 92.23 75.96 83.05 71.11 76.15
  Q 62.37 63.70 46.43 63.78
  C 39.67 63.82 33.79 66.06 29.26 70.95
  A 0.78 0.78 0.0 0 1 27.93 70.60
  L 26.74 65.61
  Q 26.58 64.92 25.87 64.92
  L 12.44 64.87
  Q 11.75 64.87 11.75 65.56
  L 11.74 148.49
  Q 11.74 148.74 11.99 148.74
  L 29.28 148.74
  Q 29.80 148.74 29.80 148.22
  L 29.85 121.41
  A 0.53 0.53 0.0 0 1 30.70 120.99
  Z
  M 108.86 86.35
  C 113.22 80.85 123.01 80.48 129.34 81.78
  A 0.55 0.55 0.0 0 0 130.00 81.24
  L 130.00 64.46
  Q 130.00 63.82 129.36 63.79
  C 119.49 63.40 112.54 64.28 106.70 72.81
  Q 105.45 74.62 105.01 72.47
  L 103.58 65.58
  Q 103.45 64.97 102.83 64.97
  L 87.40 64.92
  Q 86.53 64.91 86.49 65.78
  Q 86.34 69.17 86.35 72.42
  Q 86.45 100.37 86.54 124.32
  A 0.48 0.47 0.0 0 0 87.02 124.79
  L 104.58 124.76
  A 0.68 0.67 89.6 0 0 105.25 124.07
  Q 105.09 108.96 105.35 96.09
  Q 105.46 90.64 108.86 86.35
  Z
  M 404.27 79.48
  C 409.97 78.03 415.72 82.05 415.74 88.16
  Q 415.81 104.35 415.75 124.19
  A 0.60 0.60 0.0 0 0 416.36 124.79
  L 433.82 124.75
  A 0.67 0.66 90.0 0 0 434.48 124.08
  Q 434.46 106.79 434.47 90.25
  C 434.47 82.74 439.66 77.78 447.09 79.71
  C 453.30 81.33 454.11 86.94 454.04 92.79
  Q 453.86 108.94 453.98 124.25
  Q 453.99 124.78 454.52 124.78
  L 472.00 124.74
  A 0.39 0.39 0.0 0 0 472.39 124.34
  Q 472.20 109.56 472.44 94.29
  Q 472.66 80.79 471.04 76.38
  Q 466.18 63.18 449.34 63.84
  Q 438.94 64.25 431.80 72.65
  A 0.77 0.76 49.8 0 1 430.56 72.54
  Q 426.40 65.57 419.82 64.33
  Q 406.03 61.74 397.76 71.79
  A 0.70 0.69 57.9 0 1 396.55 71.51
  L 395.05 65.41
  Q 394.92 64.90 394.41 64.90
  L 378.44 64.86
  A 0.45 0.45 0.0 0 0 377.99 65.31
  L 377.99 124.51
  A 0.27 0.27 0.0 0 0 378.26 124.78
  L 395.89 124.76
  A 0.74 0.74 0.0 0 0 396.63 124.02
  Q 396.60 107.17 396.62 90.68
  Q 396.64 81.43 404.27 79.48
  Z
  M 291.5716 65.2861
  A 0.37 0.37 0.0 0 0 291.2022 64.9155
  L 273.5423 64.8846
  A 0.37 0.37 0.0 0 0 273.1716 65.2540
  L 273.0684 124.3939
  A 0.37 0.37 0.0 0 0 273.4378 124.7645
  L 291.0977 124.7954
  A 0.37 0.37 0.0 0 0 291.4684 124.4260
  L 291.5716 65.2861
  Z
  M 306.88 114.67
  Q 306.86 115.00 306.96 115.33
  Q 307.06 115.65 307.28 115.87
  Q 309.60 118.18 311.89 120.59
  C 313.69 122.48 315.82 123.57 318.26 124.37
  Q 327.27 127.31 336.31 124.88
  C 340.31 123.80 343.60 121.35 346.28 118.32
  A 0.97 0.97 0.0 0 1 347.96 118.75
  L 349.14 124.09
  Q 349.29 124.78 350.00 124.78
  L 365.77 124.76
  A 0.66 0.66 0.0 0 0 366.43 124.10
  L 366.44 65.29
  A 0.39 0.38 90.0 0 0 366.06 64.90
  L 348.12 64.86
  A 0.34 0.33 0.0 0 0 347.78 65.19
  Q 347.65 78.22 347.81 92.02
  Q 347.91 100.25 346.45 103.31
  Q 343.30 109.95 335.32 110.35
  C 325.98 110.83 321.88 104.13 321.93 95.57
  Q 322.03 80.05 321.96 65.55
  A 0.66 0.65 89.6 0 0 321.31 64.90
  L 304.02 64.85
  Q 303.51 64.85 303.51 65.36
  Q 303.36 94.41 303.63 104.03
  C 303.69 106.23 304.38 108.72 305.30 110.76
  Q 306.08 112.49 306.48 114.37
  Q 306.49 114.45 306.55 114.51
  Q 306.67 114.64 306.82 114.62
  Q 306.88 114.61 306.88 114.67
  Z
  M 836.94 104.26
  C 833.81 110.63 825.64 111.72 820.45 107.48
  C 812.20 100.74 814.05 81.51 826.41 80.54
  Q 833.43 79.99 836.89 86.25
  Q 837.25 86.90 837.95 86.66
  L 852.49 81.84
  A 0.40 0.39 -21.2 0 0 852.73 81.31
  Q 847.85 69.72 836.75 66.60
  C 815.76 60.70 798.24 75.60 799.35 97.00
  Q 800.00 109.55 808.06 117.37
  C 814.04 123.18 821.43 125.80 829.58 125.22
  Q 846.53 124.02 852.64 109.44
  Q 852.88 108.86 852.28 108.66
  L 837.70 103.94
  A 0.63 0.63 0.0 0 0 836.94 104.26
  Z
  M 941.65 85.36
  C 940.79 82.36 943.29 79.65 946.06 79.13
  Q 953.98 77.64 955.86 84.65
  Q 955.99 85.17 956.53 85.17
  L 971.06 85.16
  A 0.68 0.67 -1.2 0 0 971.74 84.46
  C 971.43 73.89 962.37 67.12 952.59 65.68
  C 938.58 63.63 922.10 70.72 924.55 87.57
  C 926.30 99.62 940.98 100.64 950.07 102.65
  C 953.43 103.39 956.92 105.75 954.25 109.51
  Q 952.69 111.72 949.88 112.22
  Q 941.38 113.75 939.28 106.57
  Q 939.11 106.00 938.51 106.00
  L 923.50 106.00
  Q 922.89 106.00 922.91 106.61
  C 923.36 121.82 937.72 125.91 950.19 125.19
  C 962.36 124.50 974.38 118.02 971.79 103.67
  C 969.82 92.78 956.09 91.44 947.66 89.20
  C 945.57 88.64 942.32 87.72 941.65 85.36
  Z
  M 1010.03 80.54
  C 1013.54 80.71 1016.98 83.15 1018.40 86.38
  A 0.66 0.66 0.0 0 0 1019.21 86.74
  L 1034.04 81.83
  A 0.30 0.30 0.0 0 0 1034.23 81.43
  Q 1029.20 68.89 1016.23 66.07
  C 1003.01 63.20 990.79 68.31 984.34 80.05
  Q 980.67 86.72 980.80 95.96
  C 981.05 113.39 994.11 126.52 1011.76 125.17
  C 1021.94 124.39 1030.37 119.05 1034.10 109.40
  Q 1034.31 108.84 1033.74 108.66
  L 1019.26 103.97
  Q 1018.70 103.78 1018.43 104.31
  C 1014.07 112.60 1002.21 111.56 998.57 103.11
  C 994.62 93.91 997.80 79.96 1010.03 80.54
  Z
  M 1075.28 118.04
  L 1075.25 123.50
  A 0.50 0.50 0.0 0 0 1075.75 124.00
  L 1088.30 124.00
  Q 1089.02 124.00 1089.02 123.28
  Q 1088.94 106.01 1089.05 88.59
  Q 1089.09 83.31 1088.11 79.55
  C 1086.12 71.93 1078.68 67.10 1071.16 65.86
  Q 1056.12 63.39 1046.27 73.88
  Q 1042.47 77.93 1041.53 84.19
  Q 1041.42 84.95 1042.19 84.95
  L 1056.33 84.94
  A 0.92 0.91 -77.0 0 0 1057.15 84.42
  Q 1060.05 78.22 1066.73 79.11
  C 1073.21 79.97 1073.44 84.72 1073.23 90.04
  Q 1073.20 90.59 1072.65 90.58
  C 1060.68 90.46 1038.82 91.54 1039.56 109.07
  C 1040.12 122.42 1051.67 127.03 1063.31 124.85
  Q 1070.88 123.44 1074.77 117.88
  Q 1075.29 117.13 1075.28 118.04
  Z
  M 1119.43 73.11
  L 1119.46 67.01
  A 0.45 0.45 0.0 0 0 1119.01 66.56
  L 1104.22 66.55
  Q 1103.74 66.55 1103.74 67.03
  L 1103.73 123.49
  A 0.51 0.51 0.0 0 0 1104.24 124.00
  L 1119.01 124.00
  A 0.43 0.43 0.0 0 0 1119.44 123.57
  Q 1119.42 109.19 1119.43 93.06
  Q 1119.44 82.74 1128.28 80.82
  Q 1135.49 79.25 1138.71 84.98
  C 1139.89 87.09 1140.26 90.14 1140.26 92.58
  Q 1140.25 108.97 1140.27 123.50
  Q 1140.27 124.00 1140.77 124.00
  L 1155.25 124.00
  A 0.72 0.71 -0.4 0 0 1155.96 123.29
  Q 1156.01 106.66 1155.93 89.25
  C 1155.87 76.56 1151.21 66.58 1136.95 65.40
  Q 1125.75 64.48 1119.85 73.24
  Q 1119.42 73.87 1119.43 73.11
  Z
  M 739.92 117.59
  L 739.97 123.36
  Q 739.97 124.00 740.61 124.00
  L 755.46 124.00
  A 0.29 0.28 90.0 0 0 755.74 123.71
  L 755.75 67.03
  A 0.47 0.47 0.0 0 0 755.28 66.56
  L 740.51 66.56
  Q 739.95 66.56 739.95 67.11
  Q 739.95 82.48 739.95 97.91
  C 739.96 103.73 736.69 108.63 731.01 109.75
  C 724.08 111.12 719.49 106.90 719.34 99.72
  Q 719.01 83.99 719.27 67.30
  Q 719.28 66.57 718.54 66.57
  L 703.74 66.55
  A 0.36 0.36 0.0 0 0 703.38 66.91
  Q 703.33 83.27 703.39 101.72
  C 703.44 114.72 709.25 124.79 723.65 125.21
  Q 733.90 125.50 739.33 117.41
  Q 739.92 116.55 739.92 117.59
  Z
  M 787.59 66.94
  A 0.38 0.38 0.0 0 0 787.21 66.56
  L 772.15 66.56
  A 0.38 0.38 0.0 0 0 771.77 66.94
  L 771.77 123.62
  A 0.38 0.38 0.0 0 0 772.15 124.00
  L 787.21 124.00
  A 0.38 0.38 0.0 0 0 787.59 123.62
  L 787.59 66.94
  Z"
/>
<path fill="#fefad6" d="
  M 629.43 47.74
  L 623.57 49.23
  Q 616.96 49.20 610.50 50.45
  Q 609.62 50.62 608.00 50.02
  L 615.73 14.58
  Q 615.85 14.03 616.06 14.55
  L 629.43 47.74
  Z"
/>
<path fill="#fefad6" d="
  M 662.58 96.87
  Q 664.22 81.76 657.80 69.73
  Q 648.94 53.12 630.10 47.65
  L 654.20 21.91
  Q 654.98 21.07 654.80 22.20
  L 649.18 56.76
  A 0.46 0.46 0.0 0 0 649.77 57.28
  L 683.51 47.32
  Q 684.40 47.06 683.81 47.77
  L 661.40 74.64
  Q 660.74 75.43 661.75 75.62
  L 696.18 82.08
  Q 697.14 82.26 696.24 82.64
  L 662.58 96.87
  Z"
/>
<path fill="#fefad6" d="
  M 607.09 50.34
  L 591.73 58.95
  A 1.22 1.22 0.0 0 0 591.51 60.92
  Q 597.94 66.63 602.31 73.50
  Q 592.68 84.09 596.55 97.29
  Q 595.09 97.35 594.10 98.07
  Q 593.70 98.35 593.21 98.40
  Q 590.69 98.65 588.91 99.86
  Q 587.95 100.51 586.87 100.35
  Q 586.35 100.28 586.04 100.71
  Q 585.88 100.94 585.61 101.04
  Q 585.29 101.16 584.94 101.11
  Q 582.73 100.84 581.22 102.87
  Q 579.95 104.59 578.52 103.00
  Q 577.90 102.30 577.31 101.65
  Q 576.66 100.94 576.93 101.86
  Q 579.07 109.30 583.75 116.43
  L 549.62 124.26
  A 0.16 0.15 -74.0 0 1 549.48 124.00
  L 574.09 97.83
  A 0.51 0.51 0.0 0 0 573.88 97.00
  Q 563.46 93.58 553.14 89.94
  C 549.10 88.51 544.82 87.47 540.99 85.78
  Q 540.26 85.45 541.03 85.25
  L 573.65 76.51
  A 0.61 0.60 65.2 0 0 573.99 75.58
  L 554.57 47.44
  Q 553.98 46.58 554.95 46.97
  L 587.16 59.80
  Q 587.80 60.05 587.65 59.38
  L 580.03 25.52
  Q 579.77 24.37 580.62 25.19
  L 607.09 50.34
  Z
  M 576.80 77.82
  Q 577.35 76.80 577.57 75.74
  Q 577.73 74.96 577.11 75.46
  Q 576.02 76.33 576.24 77.72
  Q 576.38 78.58 576.80 77.82
  Z"
/>
<ellipse fill="#215155" cx="0.00" cy="0.00" transform="translate(282.26,47.88) rotate(0.1)" rx="10.98" ry="10.53"/>
<rect fill="#215155" x="-8.01" y="-7.17" transform="translate(779.72,50.60) rotate(0.1)" width="16.02" height="14.34" rx="0.30"/>
<path fill="#215155" d="
  M 883.11 88.88
  L 900.72 66.69
  A 0.32 0.32 0.0 0 1 900.97 66.57
  L 918.74 66.54
  A 0.32 0.32 0.0 0 1 918.99 67.06
  L 897.34 94.70
  A 0.32 0.32 0.0 0 0 897.34 95.10
  L 919.53 123.49
  A 0.32 0.32 0.0 0 1 919.27 124.01
  L 900.95 123.99
  A 0.32 0.32 0.0 0 1 900.70 123.87
  L 883.14 101.63
  A 0.32 0.32 0.0 0 0 882.89 101.51
  L 879.93 101.50
  A 0.32 0.32 0.0 0 0 879.61 101.82
  L 879.62 123.68
  A 0.32 0.32 0.0 0 1 879.30 124.00
  L 864.11 124.00
  A 0.32 0.32 0.0 0 1 863.79 123.68
  L 863.79 45.72
  A 0.32 0.32 0.0 0 1 864.11 45.40
  L 879.30 45.40
  A 0.32 0.32 0.0 0 1 879.62 45.72
  L 879.62 88.66
  A 0.32 0.32 0.0 0 0 879.94 88.98
  L 882.85 89.00
  A 0.32 0.32 0.0 0 0 883.11 88.88
  Z"
/>
<path fill="#fef6ab" d="
  M 630.10 47.65
  Q 648.94 53.12 657.80 69.73
  Q 664.22 81.76 662.58 96.87
  Q 662.20 96.92 662.32 97.74
  Q 660.08 108.58 653.47 117.44
  L 650.03 121.36
  A 0.56 0.56 0.0 0 0 650.05 122.12
  Q 658.76 131.20 669.98 130.02
  C 674.15 129.58 677.84 130.31 680.39 133.62
  C 684.17 138.54 683.05 146.27 677.09 149.03
  Q 674.70 150.13 671.84 150.30
  Q 647.41 151.72 632.42 132.56
  A 1.06 1.05 -27.7 0 0 631.26 132.21
  Q 627.62 133.43 623.14 133.68
  A 0.81 0.79 -76.3 0 0 622.48 134.09
  L 622.30 134.43
  Q 621.35 133.79 620.50 133.85
  Q 611.89 134.55 604.04 131.12
  Q 603.58 130.92 603.09 130.90
  Q 601.93 130.85 600.25 129.87
  Q 590.89 124.44 584.84 117.67
  Q 584.29 116.73 583.75 116.43
  Q 579.07 109.30 576.93 101.86
  Q 576.66 100.94 577.31 101.65
  Q 577.90 102.30 578.52 103.00
  Q 579.95 104.59 581.22 102.87
  Q 582.73 100.84 584.94 101.11
  Q 585.29 101.16 585.61 101.04
  Q 585.88 100.94 586.04 100.71
  Q 586.35 100.28 586.87 100.35
  Q 587.95 100.51 588.91 99.86
  Q 590.69 98.65 593.21 98.40
  Q 593.70 98.35 594.10 98.07
  Q 595.09 97.35 596.55 97.29
  Q 599.86 107.43 609.75 111.75
  C 628.28 119.85 647.76 101.65 641.25 82.66
  Q 639.01 76.13 633.52 71.71
  Q 631.58 70.15 627.94 68.58
  Q 624.96 67.29 622.07 65.97
  Q 614.77 56.67 623.57 49.23
  L 629.43 47.74
  Q 630.50 47.46 630.10 47.65
  Z"
/>
<path fill="#215155" d="
  M 249.52 79.02
  Q 248.61 79.03 248.63 79.94
  Q 248.87 92.48 248.66 104.50
  C 248.52 113.02 257.16 112.61 262.89 111.34
  A 0.43 0.42 84.0 0 1 263.40 111.76
  L 263.29 123.93
  Q 263.29 124.54 262.69 124.68
  Q 249.25 127.72 239.10 123.66
  Q 236.89 122.78 235.06 120.78
  Q 233.61 119.19 232.75 117.42
  Q 230.30 112.41 230.28 106.75
  Q 230.25 93.81 230.28 79.55
  A 0.51 0.51 0.0 0 0 229.77 79.04
  L 217.48 79.16
  Q 216.84 79.16 216.88 78.52
  Q 217.28 72.25 216.57 66.04
  A 1.05 1.04 -1.9 0 1 217.66 64.88
  C 223.65 65.15 231.55 65.24 231.76 56.92
  Q 231.87 53.01 231.77 49.22
  A 0.67 0.66 -0.8 0 1 232.44 48.54
  L 248.29 48.55
  A 0.49 0.49 0.0 0 1 248.78 49.04
  L 248.71 64.33
  Q 248.71 64.96 249.33 64.96
  L 264.83 64.94
  A 0.64 0.64 0.0 0 1 265.47 65.58
  L 265.40 78.25
  Q 265.40 78.90 264.75 78.90
  L 249.52 79.02
  Z"
/>
<path fill="#fffef7" d="
  M 623.57 49.23
  Q 614.77 56.67 622.07 65.97
  Q 619.15 66.43 616.28 66.92
  Q 607.37 68.46 602.31 73.50
  Q 597.94 66.63 591.51 60.92
  A 1.22 1.22 0.0 0 1 591.73 58.95
  L 607.09 50.34
  L 608.00 50.02
  Q 609.62 50.62 610.50 50.45
  Q 616.96 49.20 623.57 49.23
  Z"
/>
<path fill="#fef6ab" d="
  M 162.18 129.51
  L 162.31 127.16
  Q 162.34 126.64 162.71 126.28
  Q 163.01 125.99 163.38 125.81
  Q 164.08 125.47 163.89 124.72
  Q 163.62 123.64 164.37 122.89
  Q 164.73 122.52 164.84 122.02
  Q 165.12 120.71 166.08 119.96
  Q 166.47 119.67 166.30 119.21
  Q 166.05 118.55 166.08 117.86
  Q 166.10 117.42 166.42 117.11
  C 167.10 116.48 166.88 115.77 167.53 115.10
  Q 168.66 113.95 169.97 114.24
  Q 181.44 115.28 187.82 107.97
  C 195.32 99.38 194.24 87.03 185.54 79.78
  C 183.09 77.74 180.30 77.12 177.59 75.69
  C 172.34 72.91 171.83 65.82 176.06 62.08
  Q 179.90 58.68 185.04 60.59
  Q 198.21 65.48 204.60 76.44
  Q 209.92 85.57 209.72 94.87
  Q 209.39 110.52 199.01 120.76
  Q 184.04 135.53 162.18 129.51
  Z"
/>
<path fill="#215155" d="
  M 30.70 120.99
  A 0.53 0.53 0.0 0 0 29.85 121.41
  L 29.80 148.22
  Q 29.80 148.74 29.28 148.74
  L 11.99 148.74
  Q 11.74 148.74 11.74 148.49
  L 11.75 65.56
  Q 11.75 64.87 12.44 64.87
  L 25.87 64.92
  Q 26.58 64.92 26.74 65.61
  L 27.93 70.60
  A 0.78 0.78 0.0 0 0 29.26 70.95
  C 33.79 66.06 39.67 63.82 46.43 63.78
  Q 62.37 63.70 71.11 76.15
  C 75.96 83.05 76.89 92.23 75.97 100.74
  Q 75.77 102.53 75.20 104.17
  C 74.66 105.70 74.64 107.16 73.98 108.65
  Q 69.15 119.34 59.41 123.37
  Q 50.67 126.99 42.52 125.43
  Q 40.44 125.03 38.34 124.83
  C 35.45 124.55 32.94 122.71 30.70 120.99
  Z
  M 50.35 109.10
  C 62.89 101.66 59.15 78.27 42.85 79.35
  C 31.53 80.09 27.86 91.99 30.92 101.47
  Q 32.24 105.57 36.07 108.45
  Q 39.07 110.71 43.63 110.40
  C 45.93 110.24 48.30 110.32 50.35 109.10
  Z"
/>
<path fill="#215155" d="
  M 108.86 86.35
  Q 105.46 90.64 105.35 96.09
  Q 105.09 108.96 105.25 124.07
  A 0.68 0.67 89.6 0 1 104.58 124.76
  L 87.02 124.79
  A 0.48 0.47 0.0 0 1 86.54 124.32
  Q 86.45 100.37 86.35 72.42
  Q 86.34 69.17 86.49 65.78
  Q 86.53 64.91 87.40 64.92
  L 102.83 64.97
  Q 103.45 64.97 103.58 65.58
  L 105.01 72.47
  Q 105.45 74.62 106.70 72.81
  C 112.54 64.28 119.49 63.40 129.36 63.79
  Q 130.00 63.82 130.00 64.46
  L 130.00 81.24
  A 0.55 0.55 0.0 0 1 129.34 81.78
  C 123.01 80.48 113.22 80.85 108.86 86.35
  Z"
/>
<path fill="#215155" d="
  M 415.74 88.16
  C 415.72 82.05 409.97 78.03 404.27 79.48
  Q 396.64 81.43 396.62 90.68
  Q 396.60 107.17 396.63 124.02
  A 0.74 0.74 0.0 0 1 395.89 124.76
  L 378.26 124.78
  A 0.27 0.27 0.0 0 1 377.99 124.51
  L 377.99 65.31
  A 0.45 0.45 0.0 0 1 378.44 64.86
  L 394.41 64.90
  Q 394.92 64.90 395.05 65.41
  L 396.55 71.51
  A 0.70 0.69 57.9 0 0 397.76 71.79
  Q 406.03 61.74 419.82 64.33
  Q 426.40 65.57 430.56 72.54
  A 0.77 0.76 49.8 0 0 431.80 72.65
  Q 438.94 64.25 449.34 63.84
  Q 466.18 63.18 471.04 76.38
  Q 472.66 80.79 472.44 94.29
  Q 472.20 109.56 472.39 124.34
  A 0.39 0.39 0.0 0 1 472.00 124.74
  L 454.52 124.78
  Q 453.99 124.78 453.98 124.25
  Q 453.86 108.94 454.04 92.79
  C 454.11 86.94 453.30 81.33 447.09 79.71
  C 439.66 77.78 434.47 82.74 434.47 90.25
  Q 434.46 106.79 434.48 124.08
  A 0.67 0.66 90.0 0 1 433.82 124.75
  L 416.36 124.79
  A 0.60 0.60 0.0 0 1 415.75 124.19
  Q 415.81 104.35 415.74 88.16
  Z"
/>
<rect fill="#215155" x="-9.20" y="-29.94" transform="translate(282.32,94.84) rotate(0.1)" width="18.40" height="59.88" rx="0.37"/>
<path fill="#215155" d="
  M 306.82 114.62
  Q 306.67 114.64 306.55 114.51
  Q 306.49 114.45 306.48 114.37
  Q 306.08 112.49 305.30 110.76
  C 304.38 108.72 303.69 106.23 303.63 104.03
  Q 303.36 94.41 303.51 65.36
  Q 303.51 64.85 304.02 64.85
  L 321.31 64.90
  A 0.66 0.65 89.6 0 1 321.96 65.55
  Q 322.03 80.05 321.93 95.57
  C 321.88 104.13 325.98 110.83 335.32 110.35
  Q 343.30 109.95 346.45 103.31
  Q 347.91 100.25 347.81 92.02
  Q 347.65 78.22 347.78 65.19
  A 0.34 0.33 -0.0 0 1 348.12 64.86
  L 366.06 64.90
  A 0.39 0.38 90.0 0 1 366.44 65.29
  L 366.43 124.10
  A 0.66 0.66 0.0 0 1 365.77 124.76
  L 350.00 124.78
  Q 349.29 124.78 349.14 124.09
  L 347.96 118.75
  A 0.97 0.97 0.0 0 0 346.28 118.32
  C 343.60 121.35 340.31 123.80 336.31 124.88
  Q 327.27 127.31 318.26 124.37
  C 315.82 123.57 313.69 122.48 311.89 120.59
  Q 309.60 118.18 307.28 115.87
  Q 307.06 115.65 306.96 115.33
  Q 306.86 115.00 306.88 114.67
  Q 306.88 114.61 306.82 114.62
  Z"
/>
<path fill="#beded2" d="
  M 153.91 95.26
  Q 153.73 95.50 153.55 95.22
  Q 153.38 94.94 153.44 94.62
  Q 153.48 94.37 153.27 94.51
  Q 152.34 95.08 150.99 94.88
  Q 149.00 94.58 147.01 94.37
  Q 146.50 94.31 146.07 94.57
  Q 145.47 94.93 144.95 94.42
  Q 144.54 94.02 143.98 94.08
  L 138.48 94.60
  Q 138.01 94.64 137.90 95.10
  L 137.13 98.31
  Q 135.82 77.14 152.81 65.09
  Q 153.27 64.77 153.69 65.14
  Q 155.05 66.34 155.90 67.90
  Q 158.56 72.78 162.00 76.74
  A 1.69 1.69 0.0 0 1 161.73 79.21
  Q 153.92 85.05 153.91 95.26
  Z"
/>
<path fill="#215155" d="
  M 820.45 107.48
  C 825.64 111.72 833.81 110.63 836.94 104.26
  A 0.63 0.63 0.0 0 1 837.70 103.94
  L 852.28 108.66
  Q 852.88 108.86 852.64 109.44
  Q 846.53 124.02 829.58 125.22
  C 821.43 125.80 814.04 123.18 808.06 117.37
  Q 800.00 109.55 799.35 97.00
  C 798.24 75.60 815.76 60.70 836.75 66.60
  Q 847.85 69.72 852.73 81.31
  A 0.40 0.39 -21.2 0 1 852.49 81.84
  L 837.95 86.66
  Q 837.25 86.90 836.89 86.25
  Q 833.43 79.99 826.41 80.54
  C 814.05 81.51 812.20 100.74 820.45 107.48
  Z"
/>
<path fill="#215155" d="
  M 946.06 79.13
  C 943.29 79.65 940.79 82.36 941.65 85.36
  C 942.32 87.72 945.57 88.64 947.66 89.20
  C 956.09 91.44 969.82 92.78 971.79 103.67
  C 974.38 118.02 962.36 124.50 950.19 125.19
  C 937.72 125.91 923.36 121.82 922.91 106.61
  Q 922.89 106.00 923.50 106.00
  L 938.51 106.00
  Q 939.11 106.00 939.28 106.57
  Q 941.38 113.75 949.88 112.22
  Q 952.69 111.72 954.25 109.51
  C 956.92 105.75 953.43 103.39 950.07 102.65
  C 940.98 100.64 926.30 99.62 924.55 87.57
  C 922.10 70.72 938.58 63.63 952.59 65.68
  C 962.37 67.12 971.43 73.89 971.74 84.46
  A 0.68 0.67 -1.2 0 1 971.06 85.16
  L 956.53 85.17
  Q 955.99 85.17 955.86 84.65
  Q 953.98 77.64 946.06 79.13
  Z"
/>
<path fill="#215155" d="
  M 1010.03 80.54
  C 997.80 79.96 994.62 93.91 998.57 103.11
  C 1002.21 111.56 1014.07 112.60 1018.43 104.31
  Q 1018.70 103.78 1019.26 103.97
  L 1033.74 108.66
  Q 1034.31 108.84 1034.10 109.40
  C 1030.37 119.05 1021.94 124.39 1011.76 125.17
  C 994.11 126.52 981.05 113.39 980.80 95.96
  Q 980.67 86.72 984.34 80.05
  C 990.79 68.31 1003.01 63.20 1016.23 66.07
  Q 1029.20 68.89 1034.23 81.43
  A 0.30 0.30 0.0 0 1 1034.04 81.83
  L 1019.21 86.74
  A 0.66 0.66 0.0 0 1 1018.40 86.38
  C 1016.98 83.15 1013.54 80.71 1010.03 80.54
  Z"
/>
<path fill="#215155" d="
  M 1074.77 117.88
  Q 1070.88 123.44 1063.31 124.85
  C 1051.67 127.03 1040.12 122.42 1039.56 109.07
  C 1038.82 91.54 1060.68 90.46 1072.65 90.58
  Q 1073.20 90.59 1073.23 90.04
  C 1073.44 84.72 1073.21 79.97 1066.73 79.11
  Q 1060.05 78.22 1057.15 84.42
  A 0.92 0.91 -77.0 0 1 1056.33 84.94
  L 1042.19 84.95
  Q 1041.42 84.95 1041.53 84.19
  Q 1042.47 77.93 1046.27 73.88
  Q 1056.12 63.39 1071.16 65.86
  C 1078.68 67.10 1086.12 71.93 1088.11 79.55
  Q 1089.09 83.31 1089.05 88.59
  Q 1088.94 106.01 1089.02 123.28
  Q 1089.02 124.00 1088.30 124.00
  L 1075.75 124.00
  A 0.50 0.50 0.0 0 1 1075.25 123.50
  L 1075.28 118.04
  Q 1075.29 117.13 1074.77 117.88
  Z
  M 1072.69 100.49
  C 1068.35 100.30 1052.17 100.56 1055.93 109.25
  C 1057.82 113.62 1064.36 113.59 1067.86 111.80
  Q 1073.49 108.91 1073.23 101.05
  Q 1073.22 100.52 1072.69 100.49
  Z"
/>
<path fill="#215155" d="
  M 1119.43 73.11
  Q 1119.42 73.87 1119.85 73.24
  Q 1125.75 64.48 1136.95 65.40
  C 1151.21 66.58 1155.87 76.56 1155.93 89.25
  Q 1156.01 106.66 1155.96 123.29
  A 0.72 0.71 -0.4 0 1 1155.25 124.00
  L 1140.77 124.00
  Q 1140.27 124.00 1140.27 123.50
  Q 1140.25 108.97 1140.26 92.58
  C 1140.26 90.14 1139.89 87.09 1138.71 84.98
  Q 1135.49 79.25 1128.28 80.82
  Q 1119.44 82.74 1119.43 93.06
  Q 1119.42 109.19 1119.44 123.57
  A 0.43 0.43 0.0 0 1 1119.01 124.00
  L 1104.24 124.00
  A 0.51 0.51 0.0 0 1 1103.73 123.49
  L 1103.74 67.03
  Q 1103.74 66.55 1104.22 66.55
  L 1119.01 66.56
  A 0.45 0.45 0.0 0 1 1119.46 67.01
  L 1119.43 73.11
  Z"
/>
<path fill="#8ccada" d="
  M 622.07 65.97
  Q 624.96 67.29 627.94 68.58
  Q 631.58 70.15 633.52 71.71
  Q 639.01 76.13 641.25 82.66
  C 647.76 101.65 628.28 119.85 609.75 111.75
  Q 599.86 107.43 596.55 97.29
  Q 592.68 84.09 602.31 73.50
  Q 607.37 68.46 616.28 66.92
  Q 619.15 66.43 622.07 65.97
  Z"
/>
<path fill="#215155" d="
  M 739.33 117.41
  Q 733.90 125.50 723.65 125.21
  C 709.25 124.79 703.44 114.72 703.39 101.72
  Q 703.33 83.27 703.38 66.91
  A 0.36 0.36 0.0 0 1 703.74 66.55
  L 718.54 66.57
  Q 719.28 66.57 719.27 67.30
  Q 719.01 83.99 719.34 99.72
  C 719.49 106.90 724.08 111.12 731.01 109.75
  C 736.69 108.63 739.96 103.73 739.95 97.91
  Q 739.95 82.48 739.95 67.11
  Q 739.95 66.56 740.51 66.56
  L 755.28 66.56
  A 0.47 0.47 0.0 0 1 755.75 67.03
  L 755.74 123.71
  A 0.29 0.28 -90.0 0 1 755.46 124.00
  L 740.61 124.00
  Q 739.97 124.00 739.97 123.36
  L 739.92 117.59
  Q 739.92 116.55 739.33 117.41
  Z"
/>
<rect fill="#215155" x="771.77" y="66.56" width="15.82" height="57.44" rx="0.38"/>
<path fill="#8ccada" d="
  M 576.24 77.72
  Q 576.02 76.33 577.11 75.46
  Q 577.73 74.96 577.57 75.74
  Q 577.35 76.80 576.80 77.82
  Q 576.38 78.58 576.24 77.72
  Z"
/>
<path fill="#8ccada" d="
  M 42.85 79.35
  C 59.15 78.27 62.89 101.66 50.35 109.10
  C 48.30 110.32 45.93 110.24 43.63 110.40
  Q 39.07 110.71 36.07 108.45
  Q 32.24 105.57 30.92 101.47
  C 27.86 91.99 31.53 80.09 42.85 79.35
  Z"
/>
<path fill="#fefad6" d="
  M 153.91 95.26
  Q 153.75 97.71 154.46 99.98
  Q 158.08 111.53 169.97 114.24
  Q 168.66 113.95 167.53 115.10
  C 166.88 115.77 167.10 116.48 166.42 117.11
  Q 166.10 117.42 166.08 117.86
  Q 166.05 118.55 166.30 119.21
  Q 166.47 119.67 166.08 119.96
  Q 165.12 120.71 164.84 122.02
  Q 164.73 122.52 164.37 122.89
  Q 163.62 123.64 163.89 124.72
  Q 164.08 125.47 163.38 125.81
  Q 163.01 125.99 162.71 126.28
  Q 162.34 126.64 162.31 127.16
  L 162.18 129.51
  Q 152.06 126.15 145.46 118.29
  Q 138.31 109.77 137.13 98.31
  L 137.90 95.10
  Q 138.01 94.64 138.48 94.60
  L 143.98 94.08
  Q 144.54 94.02 144.95 94.42
  Q 145.47 94.93 146.07 94.57
  Q 146.50 94.31 147.01 94.37
  Q 149.00 94.58 150.99 94.88
  Q 152.34 95.08 153.27 94.51
  Q 153.48 94.37 153.44 94.62
  Q 153.38 94.94 153.55 95.22
  Q 153.73 95.50 153.91 95.26
  Z"
/>
<path fill="#fefad6" d="
  M 662.32 97.74
  L 689.90 119.97
  Q 690.73 120.64 689.67 120.55
  L 653.47 117.44
  Q 660.08 108.58 662.32 97.74
  Z"
/>
<path fill="#8ccada" d="
  M 1055.93 109.25
  C 1052.17 100.56 1068.35 100.30 1072.69 100.49
  Q 1073.22 100.52 1073.23 101.05
  Q 1073.49 108.91 1067.86 111.80
  C 1064.36 113.59 1057.82 113.62 1055.93 109.25
  Z"
/>
<path fill="#fefad6" d="
  M 584.84 117.67
  Q 590.89 124.44 600.25 129.87
  Q 601.93 130.85 603.09 130.90
  Q 603.58 130.92 604.04 131.12
  Q 611.89 134.55 620.50 133.85
  Q 621.35 133.79 622.30 134.43
  L 609.69 165.56
  Q 609.14 166.93 608.83 165.48
  L 601.71 131.57
  A 0.40 0.39 -23.1 0 0 601.10 131.33
  L 571.92 150.97
  Q 570.97 151.61 571.41 150.55
  L 584.84 117.67
  Z"
/>
</svg>
