<svg version="1.1" id="Layer_1" xmlns="http://www.w3.org/2000/svg" xmlns:xlink="http://www.w3.org/1999/xlink" x="0px" y="0px"
	 width="100%" viewBox="0 0 500 500" enable-background="new 0 0 500 500" xml:space="preserve">
<path fill="#000000" opacity="1.000000" stroke="none" 
	d="
M269.000000,501.000000 
	C179.333359,501.000000 90.166710,501.000000 1.000048,501.000000 
	C1.000032,334.333405 1.000032,167.666794 1.000016,1.000137 
	C167.666565,1.000092 334.333130,1.000092 500.999756,1.000046 
	C500.999847,167.666519 500.999847,334.333038 500.999939,500.999786 
	C423.833344,501.000000 346.666656,501.000000 269.000000,501.000000 
M197.000366,283.421844 
	C197.000366,264.660980 197.000366,245.900085 197.000366,227.139221 
	C202.680237,244.563278 207.454910,262.053650 212.308319,279.522156 
	C215.735596,291.857788 215.791031,291.938904 228.744385,290.866821 
	C230.209457,290.745575 232.376709,289.073792 232.777832,287.700287 
	C236.385849,275.346191 239.639114,262.889008 243.064484,250.480850 
	C245.060883,243.249023 247.181366,236.051437 249.246033,228.838455 
	C249.594299,228.889862 249.942581,228.941254 250.290863,228.992661 
	C250.290863,249.536163 250.290863,270.079651 250.290863,290.634674 
	C256.060120,290.634674 261.295013,290.634674 266.694305,290.634674 
	C266.694305,263.377991 266.694305,236.487381 266.694305,209.025589 
	C258.289337,209.025589 250.172592,208.903473 242.069183,209.176712 
	C241.030334,209.211746 239.500214,211.151169 239.144241,212.464859 
	C234.656494,229.027145 230.360474,245.641281 225.961975,262.227997 
	C225.415588,264.288422 224.561340,266.267151 223.561371,269.100983 
	C222.827667,266.817719 222.365204,265.580322 222.031372,264.309143 
	C217.588806,247.392410 213.218826,230.456192 208.649796,213.573792 
	C208.198776,211.907257 206.614716,209.322968 205.457901,209.268753 
	C197.403671,208.891190 189.323380,209.069305 181.403625,209.069305 
	C181.403625,236.821732 181.403625,263.713348 181.403625,290.639587 
	C186.716385,290.639587 191.616928,290.639587 197.000381,290.639587 
	C197.000381,288.321381 197.000381,286.359131 197.000366,283.421844 
M417.644226,279.144745 
	C423.075409,274.093018 428.506622,269.041321 434.040436,263.894135 
	C448.562225,276.607697 461.208038,292.016144 482.642059,292.826263 
	C482.642059,286.546967 482.642059,280.967712 482.642059,275.400909 
	C470.762024,275.336243 453.565186,259.868134 447.105103,250.402634 
	C456.723938,240.913483 465.673645,230.485016 480.056824,227.771957 
	C481.119537,227.571518 482.745972,226.262085 482.786102,225.406158 
	C483.037628,220.039841 482.913269,214.655914 482.913269,209.179459 
	C461.675964,211.698746 448.183411,225.276047 434.495331,238.943924 
	C420.023834,224.542664 406.179565,209.398376 383.365601,209.293762 
	C383.365601,215.186996 383.365601,220.897964 383.365601,226.732666 
	C401.001862,227.666656 410.819672,240.275452 422.784821,251.138794 
	C416.514893,256.903717 411.112396,262.566101 404.993835,267.303741 
	C398.722015,272.160034 391.560272,275.626709 383.396484,275.273224 
	C383.396484,281.496094 383.396484,287.068909 383.396484,292.935059 
	C396.907898,293.423981 407.248505,287.171936 417.644226,279.144745 
M91.777702,262.576782 
	C94.043221,272.636963 98.779305,281.052002 107.622742,286.852600 
	C115.604774,292.088165 124.491867,293.634247 133.732819,292.932678 
	C149.682510,291.721802 162.036667,283.837769 167.731110,267.698944 
	C170.654907,259.412567 170.732925,250.884995 169.780502,242.593536 
	C168.192642,228.770142 161.947525,217.456757 148.538773,211.192368 
	C141.488052,207.898376 134.107910,207.753662 126.624725,208.012726 
	C114.594620,208.429245 104.768356,213.311874 97.946198,223.285187 
	C89.909164,235.034515 89.407616,248.251694 91.777702,262.576782 
M60.521019,276.059296 
	C61.971573,279.928680 63.278873,283.861511 64.950417,287.632965 
	C65.535179,288.952332 66.956009,290.747437 68.099182,290.826874 
	C73.125565,291.176178 78.190033,290.977631 83.857742,290.977631 
	C79.423386,280.290100 75.467766,270.308807 71.109390,260.506592 
	C69.677864,257.286987 70.093315,255.515152 72.952148,253.536087 
	C85.168190,245.079315 84.431717,222.972778 75.015732,215.784515 
	C70.972961,212.698212 65.753799,209.725174 60.893803,209.410782 
	C47.512630,208.545212 34.038815,209.111755 20.415085,209.111755 
	<svg xmlns="http://www.w3.org/2000/svg" viewBox="0 0 582 582" fill="none" style="background-color: transparent;">
		<!-- SVG paths and other elements -->
	</svg>
