<svg xmlns="http://www.w3.org/2000/svg" xmlns:xlink="http://www.w3.org/1999/xlink" width="500" zoomAndPan="magnify" viewBox="0 0 375 374.999991" height="500" preserveAspectRatio="xMidYMid meet" version="1.0"><defs><g/></defs><rect x="-37.5" width="450" fill="#ffffff" y="-37.499999" height="449.999989" fill-opacity="1"/><rect x="-37.5" width="450" fill="#ffffff" y="-37.499999" height="449.999989" fill-opacity="1"/><g fill="#2f3e46" fill-opacity="1"><g transform="translate(3.563398, 191.872384)"><g><path d="M 45.671875 -29.128906 C 52.183594 -32.207031 56.230469 -38.542969 56.230469 -47.34375 C 56.230469 -61.246094 47.519531 -67.140625 34.933594 -67.140625 L 5.984375 -67.140625 L 5.984375 0 L 18.65625 0 L 18.65625 -26.839844 L 33.613281 -26.839844 L 44.261719 0 L 57.726562 0 Z M 33.175781 -55.789062 C 39.863281 -55.789062 43.648438 -52.621094 43.648438 -46.902344 C 43.648438 -41.007812 39.949219 -37.925781 33.175781 -37.925781 L 18.65625 -37.925781 L 18.65625 -55.789062 Z M 33.175781 -55.789062 "/></g></g></g><g fill="#2f3e46" fill-opacity="1"><g transform="translate(64.192728, 191.872384)"><g><path d="M 35.992188 1.230469 C 58.253906 1.230469 68.636719 -15.046875 68.636719 -33.613281 C 68.636719 -52.183594 58.253906 -68.375 35.992188 -68.375 C 13.816406 -68.375 3.433594 -52.183594 3.433594 -33.613281 C 3.433594 -15.046875 13.816406 1.230469 35.992188 1.230469 Z M 35.992188 -10.121094 C 23.757812 -10.121094 16.632812 -19.625 16.632812 -33.613281 C 16.632812 -47.519531 23.757812 -56.933594 35.992188 -56.933594 C 48.398438 -56.933594 55.4375 -47.519531 55.4375 -33.613281 C 55.4375 -19.625 48.398438 -10.121094 35.992188 -10.121094 Z M 35.992188 -10.121094 "/></g></g></g><g fill="#2f3e46" fill-opacity="1"><g transform="translate(136.349541, 191.872384)"><g><path d="M 18.65625 0 L 18.65625 -57.285156 L 34.671875 0 L 47.078125 0 L 63.09375 -57.636719 L 63.09375 0 L 75.765625 0 L 75.765625 -67.140625 L 54.644531 -67.140625 L 40.832031 -15.3125 L 26.925781 -67.140625 L 5.984375 -67.140625 L 5.984375 0 Z M 18.65625 0 "/></g></g></g><g fill="#52796f" fill-opacity="1"><g transform="translate(218.09854, 191.872384)"><g><path d="M 13.902344 0 L 18.390625 -13.816406 L 44 -13.816406 L 48.574219 0 L 61.863281 0 L 38.191406 -67.140625 L 24.289062 -67.140625 L 0.617188 0 Z M 31.238281 -53.328125 L 40.480469 -24.902344 L 22 -24.902344 Z M 31.238281 -53.328125 "/></g></g></g><g fill="#52796f" fill-opacity="1"><g transform="translate(280.575782, 191.872384)"><g><path d="M 18.65625 0 L 18.65625 -67.140625 L 5.984375 -67.140625 L 5.984375 0 Z M 18.65625 0 "/></g></g></g><g fill="#2f3e46" fill-opacity="1"><g transform="translate(305.215722, 191.872384)"><g><path d="M 15.839844 0 L 31.855469 -24.023438 L 47.78125 0 L 62.832031 0 L 40.480469 -33.527344 L 62.832031 -67.140625 L 47.695312 -67.140625 L 31.765625 -42.152344 L 15.925781 -67.140625 L 0.792969 -67.140625 L 23.144531 -33.527344 L 0.792969 0 Z M 15.839844 0 "/></g></g></g><g fill="#52796f" fill-opacity="1"><g transform="translate(175.821439, 190.63332)"><g><path d="M 0.523438 0 L 0.984375 -1.234375 L 3.144531 -1.234375 L 3.605469 0 L 4.03125 0 L 2.304688 -4.578125 L 1.824219 -4.578125 L 0.0976562 0 Z M 2.0625 -4.152344 L 3.011719 -1.609375 L 1.117188 -1.609375 Z M 2.0625 -4.152344 "/></g></g></g><g fill="#52796f" fill-opacity="1"><g transform="translate(204.94188, 183.233324)"><g><path d="M 0.886719 0 L 0.886719 -1.992188 L 2.058594 -1.992188 C 2.953125 -1.992188 3.511719 -2.464844 3.511719 -3.289062 C 3.511719 -4.140625 2.941406 -4.578125 2.058594 -4.578125 L 0.472656 -4.578125 L 0.472656 0 Z M 0.886719 -4.207031 L 2.003906 -4.207031 C 2.699219 -4.207031 3.101562 -3.863281 3.101562 -3.277344 C 3.101562 -2.683594 2.710938 -2.351562 2.003906 -2.351562 L 0.886719 -2.351562 Z M 0.886719 -4.207031 "/></g></g></g><g fill="#52796f" fill-opacity="1"><g transform="translate(204.176255, 191.233324)"><g><path d="M 0.886719 0 L 0.886719 -4.152344 L 2.371094 0 L 2.886719 0 L 4.367188 -4.140625 L 4.367188 0 L 4.78125 0 L 4.78125 -4.578125 L 4.117188 -4.578125 L 2.628906 -0.421875 L 1.140625 -4.578125 L 0.472656 -4.578125 L 0.472656 0 Z M 0.886719 0 "/></g></g></g><g fill="#52796f" fill-opacity="1"><g transform="translate(146.444409, 190.63332)"><g><path d="M 0.886719 0 L 0.886719 -1.992188 L 2.058594 -1.992188 C 2.953125 -1.992188 3.511719 -2.464844 3.511719 -3.289062 C 3.511719 -4.140625 2.941406 -4.578125 2.058594 -4.578125 L 0.472656 -4.578125 L 0.472656 0 Z M 0.886719 -4.207031 L 2.003906 -4.207031 C 2.699219 -4.207031 3.101562 -3.863281 3.101562 -3.277344 C 3.101562 -2.683594 2.710938 -2.351562 2.003906 -2.351562 L 0.886719 -2.351562 Z M 0.886719 -4.207031 "/></g></g></g></svg>